<?xml version="1.0" encoding="UTF-8"?>
<svg width="32px" height="32px" viewBox="0 0 32 32" version="1.1" xmlns="http://www.w3.org/2000/svg" xmlns:xlink="http://www.w3.org/1999/xlink">
    <!-- Generator: Sketch 61.2 (89653) - https://sketch.com -->
    <title>算子</title>
    <desc>Created with Sketch.</desc>
    <g id="Zora" stroke="none" stroke-width="1" fill="none" fill-rule="evenodd">
        <g id="数据计算创建-流程基本信息" transform="translate(-72.000000, -256.000000)" fill="#536385" fill-rule="nonzero">
            <g id="编组-9" transform="translate(35.500000, 72.000000)">
                <g id="编组-5" transform="translate(15.500000, 173.000000)">
                    <g id="编组-2" transform="translate(8.000000, 0.000000)">
                        <g id="算子" transform="translate(13.000000, 11.000000)">
                            <path d="M16.0309278,8.87886598 C18.5051546,8.87886598 20.4639175,6.8685567 20.4639175,4.44587629 C20.4639175,1.97164948 18.4536082,0.0128865979 16.0309278,0.0128865979 C13.556701,0.0128865979 11.5979381,2.02319588 11.5979381,4.44587629 C11.5979381,6.8685567 13.556701,8.87886598 16.0309278,8.87886598 Z M16.0309278,2.28092784 C17.2164948,2.28092784 18.1958763,3.26030928 18.1958763,4.44587629 C18.1958763,5.6314433 17.2164948,6.61082474 16.0309278,6.61082474 C14.8453608,6.61082474 13.8659794,5.6314433 13.8659794,4.44587629 C13.8659794,3.20876289 14.8453608,2.28092784 16.0309278,2.28092784 Z M8.35051546,22.0747423 C7.5257732,20.6314433 6.03092784,19.8582474 4.48453608,19.8582474 C3.71134021,19.8582474 2.98969072,20.064433 2.26804124,20.4768041 C0.154639175,21.7139175 -0.618556701,24.4458763 0.618556701,26.5592784 C1.44329897,28.0025773 2.93814433,28.7757732 4.48453608,28.7757732 C5.25773196,28.7757732 5.97938144,28.5695876 6.70103093,28.1572165 C8.86597938,26.9201031 9.58762887,24.1881443 8.35051546,22.0747423 Z M5.56701031,26.1469072 C5.25773196,26.3530928 4.84536082,26.4561856 4.48453608,26.4561856 C4.12371134,26.4561856 3.71134021,26.3530928 3.40206186,26.1469072 C3.09278351,25.9407216 2.78350515,25.6829897 2.57731959,25.3221649 C1.95876289,24.2912371 2.31958763,22.9510309 3.35051546,22.3324742 C3.65979381,22.1262887 4.07216495,22.0231959 4.43298969,22.0231959 C4.79381443,22.0231959 5.20618557,22.1262887 5.51546392,22.3324742 C5.82474227,22.5386598 6.13402062,22.7963918 6.34020619,23.1572165 C7.01030928,24.2396907 6.64948454,25.5798969 5.56701031,26.1469072 Z M29.6907216,20.4768041 C28.9690722,20.064433 28.2474227,19.8582474 27.4742268,19.8582474 C25.9278351,19.8582474 24.4329897,20.6314433 23.6082474,22.0747423 C22.371134,24.1881443 23.0927835,26.9201031 25.257732,28.1572165 C25.9793814,28.5695876 26.7010309,28.7757732 27.4742268,28.7757732 C29.0206186,28.7757732 30.5154639,28.0025773 31.3402062,26.5592784 C32.5257732,24.4458763 31.8041237,21.7139175 29.6907216,20.4768041 Z M29.3298969,25.4252577 C29.1237113,25.7860825 28.8659794,26.0438144 28.5051546,26.25 C28.1958763,26.4561856 27.7835052,26.5592784 27.4226804,26.5592784 C27.0618557,26.5592784 26.7010309,26.4561856 26.3402062,26.25 C25.3092784,25.6314433 24.9484536,24.2912371 25.5670103,23.2603093 C25.7731959,22.8994845 26.0309278,22.6417526 26.3917526,22.435567 C26.7010309,22.2293814 27.1134021,22.1262887 27.4742268,22.1262887 C27.8350515,22.1262887 28.2474227,22.2293814 28.556701,22.435567 C29.5876289,23.0541237 29.9484536,24.3943299 29.3298969,25.4252577 Z M21.5979381,6.76546392 C25.6185567,8.87886598 28.1443299,13.0025773 28.1443299,17.5386598 L28.1443299,18.3118557 C28.0927835,18.9304124 28.556701,19.4974227 29.2268041,19.4974227 L29.2783505,19.4974227 C29.8969072,19.4974227 30.3608247,19.0335052 30.4123711,18.4149485 C30.4123711,18.1056701 30.4639175,17.7963918 30.4639175,17.4871134 C30.4639175,14.806701 29.742268,12.1778351 28.2989691,9.90979381 C26.9072165,7.69329897 25,5.88917526 22.6804124,4.70360825 C22.1134021,4.3943299 21.443299,4.65206186 21.1340206,5.16752577 C20.8247423,5.78608247 21.0309278,6.45618557 21.5979381,6.76546392 L21.5979381,6.76546392 Z M2.73195876,19.4458763 L2.78350515,19.4458763 C3.45360825,19.3943299 3.91752577,18.878866 3.86597938,18.2603093 L3.86597938,17.5386598 C3.86597938,12.9510309 6.39175258,8.82731959 10.4639175,6.71391753 C11.0309278,6.40463918 11.2371134,5.73453608 10.9793814,5.16752577 C10.6701031,4.60051546 10,4.3943299 9.43298969,4.65206186 C7.11340206,5.83762887 5.15463918,7.64175258 3.7628866,9.85824742 C2.31958763,12.1778351 1.59793814,14.806701 1.59793814,17.4871134 L1.59793814,18.3634021 C1.64948454,18.9819588 2.16494845,19.4458763 2.73195876,19.4458763 Z M22.4742268,27.7963918 C20.5670103,29.0335052 18.2989691,29.6520619 16.0309278,29.6520619 C13.7113402,29.6520619 11.443299,28.9819588 9.53608247,27.7448454 C9.02061856,27.3840206 8.29896907,27.5386598 7.93814433,28.1056701 C7.57731959,28.621134 7.73195876,29.3427835 8.29896907,29.7036082 C10.6185567,31.1984536 13.2989691,31.9716495 16.0309278,31.9716495 C18.7628866,31.9716495 21.3917526,31.1984536 23.7113402,29.7551546 C24.2268041,29.4458763 24.3814433,28.7242268 24.0721649,28.2087629 C23.7113402,27.6417526 22.9896907,27.435567 22.4742268,27.7963918 L22.4742268,27.7963918 Z" id="形状"></path>
                            <g id="service-flink" transform="translate(10.000000, 12.000000)">
                                <path d="M11.0879464,3.08571429 C10.8133929,2.82991071 10.5348214,2.63973214 10.3620536,2.53125 C10.2495536,2.22723214 10.115625,1.98080357 9.96160714,1.8 C9.796875,1.60580357 9.61071429,1.47991071 9.40714286,1.42633929 C9.08705357,1.34196429 8.89955357,1.47857143 8.81651786,1.56696429 C8.69866071,1.69151786 8.65044643,1.86696429 8.68526786,2.034375 C8.71205357,2.22723214 8.64910714,2.59285714 8.37723214,3.01473214 C8.090625,3.46205357 7.659375,3.83035714 7.16517857,4.05401786 C6.71785714,4.25625 6.3,4.45446429 5.91160714,4.68616071 C6.3,4.12232143 6.59330357,3.55714286 6.59330357,2.93169643 C6.59330357,2.44955357 6.40848214,1.71160714 5.89017857,1.08883929 C5.47901786,0.594642857 4.71696429,0.00669642857 3.42053571,0.00669642857 C1.09821429,0.00669642857 0.515625,1.54285714 0.492857143,1.60848214 C0.420535714,1.80803571 0.4875,2.03035714 0.657589286,2.15758929 C1.040625,2.44419643 1.09419643,2.634375 1.096875,2.78169643 C1.10089286,3.02678571 0.961607143,3.36160714 0.784821429,3.78348214 C0.479464286,4.51473214 0.0629464286,5.51517857 0.0160714286,6.96830357 C-0.0575892857,9.31071429 1.22678571,10.4678571 2.31830357,11.0263393 C3.46071429,11.6116071 4.60848214,11.6571429 4.65803571,11.6584821 L9.159375,11.6584821 C9.42589286,11.6584821 9.64151786,11.4428571 9.64151786,11.1763393 C9.64151786,10.8361607 9.59866071,10.6191964 9.496875,10.4517857 C9.38705357,10.2696429 9.23571429,10.1879464 9.11785714,10.1410714 C9.40982143,9.87321429 9.58125,9.51696429 9.59464286,9.140625 C9.609375,8.71741071 9.42321429,8.31830357 9.07098214,8.01696429 C8.97857143,7.93794643 8.92098214,7.85892857 8.91696429,7.80669643 C8.915625,7.78392857 8.92366071,7.75982143 8.93571429,7.73705357 C8.94241071,7.74241071 8.95178571,7.75178571 8.9625,7.76517857 L8.98392857,7.790625 C9.08303571,7.90982143 9.18616071,8.034375 9.30535714,8.13080357 C9.5625,8.34107143 9.80491071,8.34776786 9.96160714,8.31696429 C10.2080357,8.26875 10.4142857,8.07723214 10.5,7.81875 C10.5441964,7.68348214 10.5763393,7.46116071 10.471875,7.17857143 C10.3928571,6.96428571 10.2522321,6.75 10.0419643,6.51964286 C9.91071429,6.37633929 9.871875,6.28526786 9.85982143,6.24642857 C9.890625,6.22901786 9.95625,6.20758929 10.0486607,6.21026786 C10.0794643,6.21160714 10.1169643,6.21294643 10.1571429,6.215625 C10.4116071,6.22901786 10.7959821,6.24910714 11.1549107,6.11919643 C11.6544643,5.93973214 11.9477679,5.52455357 11.9825893,4.95 C12.01875,4.30982143 11.7107143,3.665625 11.0879464,3.08571429 L11.0879464,3.08571429 Z M11.0183036,4.89107143 C11.0035714,5.146875 10.9004464,5.18303571 10.8267857,5.20982143 C10.6513393,5.27276786 10.3941964,5.259375 10.2066964,5.25 C10.1611607,5.24732143 10.1183036,5.24598214 10.0767857,5.24464286 C9.57857143,5.22991071 9.14464286,5.46428571 8.971875,5.84330357 C8.87678571,6.05223214 8.86473214,6.28928571 8.93839286,6.53035714 C8.9625,6.609375 8.99598214,6.68973214 9.04017857,6.77008929 C9.00401786,6.76607143 8.96785714,6.76339286 8.93169643,6.76339286 L8.92633929,6.76339286 C8.66116071,6.76339286 8.39196429,6.87723214 8.240625,7.05535714 C8.12142857,7.19464286 7.92589286,7.48660714 7.95669643,7.88169643 C7.98214286,8.20178571 8.14553571,8.49375 8.44553571,8.75089286 C8.53392857,8.82589286 8.63839286,8.94910714 8.63303571,9.10848214 C8.62767857,9.24241071 8.54866071,9.37633929 8.41473214,9.47544643 C8.146875,9.67366071 8.01160714,9.96294643 8.04642857,10.265625 C8.06383929,10.4223214 8.128125,10.5709821 8.22589286,10.6955357 L4.68482143,10.6955357 C4.59910714,10.6915179 3.67098214,10.6366071 2.75892857,10.1691964 C2.21785714,9.89196429 1.79464286,9.52633929 1.5,9.08035714 C1.13035714,8.52053571 0.954910714,7.82008929 0.981696429,6.99910714 C1.021875,5.72410714 1.38482143,4.85357143 1.67678571,4.15580357 C1.88839286,3.64955357 2.07053571,3.21294643 2.0625,2.765625 C2.05580357,2.35848214 1.89776786,2.00491071 1.57098214,1.67276786 C1.81071429,1.38482143 2.34375,0.969642857 3.42321429,0.969642857 C4.16517857,0.969642857 4.74642857,1.21741071 5.15223214,1.70491071 C5.50714286,2.13080357 5.63169643,2.63169643 5.63169643,2.93169643 C5.63169643,3.478125 5.15892857,4.10491071 4.659375,4.76919643 C4.56026786,4.90178571 4.45714286,5.03839286 4.35535714,5.17633929 C3.825,5.90223214 3.49955357,6.56116071 3.36026786,7.190625 C3.25446429,7.66339286 3.25714286,8.11875 3.36428571,8.54330357 C3.49017857,9.0375 3.759375,9.49285714 4.16651786,9.89330357 C4.32723214,10.0513393 4.57633929,10.078125 4.76651786,9.95625 C4.95669643,9.834375 5.03571429,9.59732143 4.959375,9.38571429 C4.95803571,9.38169643 4.809375,8.96919643 4.74375,8.44151786 C4.6875,7.99285714 4.67946429,7.36339286 4.96071429,6.91339286 C5.25669643,6.440625 5.59553571,6.075 6.02678571,5.76294643 C6.44732143,5.45892857 6.94553571,5.21116071 7.565625,4.93125 C8.22723214,4.63258929 8.80580357,4.13571429 9.19151786,3.534375 C9.31473214,3.34285714 9.41383929,3.14732143 9.49017857,2.95178571 C9.49553571,2.96785714 9.50089286,2.98392857 9.50625,3.00133929 C9.54375,3.12053571 9.62678571,3.21964286 9.73660714,3.27857143 C9.740625,3.27991071 10.1035714,3.47946429 10.4464286,3.80223214 C10.7196429,4.06473214 11.04375,4.46517857 11.0183036,4.89107143 Z" id="形状"></path>
                                <path d="M9.73526786,3.90803571 C9.48348214,3.90803571 9.24107143,4.13035714 9.253125,4.39017857 C9.26517857,4.65133929 9.46473214,4.87232143 9.73526786,4.87232143 C9.98705357,4.87232143 10.2294643,4.65 10.2174107,4.39017857 C10.2053571,4.12901786 10.0044643,3.90803571 9.73526786,3.90803571 Z" id="路径"></path>
                            </g>
                        </g>
                    </g>
                </g>
            </g>
        </g>
    </g>
</svg>