<?xml version="1.0" encoding="UTF-8"?>
<svg width="26px" height="32px" viewBox="0 0 26 32" version="1.1" xmlns="http://www.w3.org/2000/svg" xmlns:xlink="http://www.w3.org/1999/xlink">
    <!-- Generator: Sketch 61.2 (89653) - https://sketch.com -->
    <title>数据输出</title>
    <desc>Created with Sketch.</desc>
    <g id="Zora" stroke="none" stroke-width="1" fill="none" fill-rule="evenodd">
        <g id="数据计算创建-流程基本信息" transform="translate(-76.000000, -115.000000)" fill="#536385" fill-rule="nonzero">
            <g id="编组-9" transform="translate(35.500000, 72.000000)">
                <g id="编组-5" transform="translate(16.500000, 30.000000)">
                    <g id="数据输出" transform="translate(24.000000, 13.000000)">
                        <g id="编组-14" transform="translate(0.031143, 0.000000)">
                            <path d="M12.576,-1.27897692e-13 C19.5188571,-1.27897692e-13 25.1474286,2.72875218 25.1474286,6.09365517 L25.147,13.124 L22.861,13.124 L22.8617143,9.59918097 C20.5867143,11.1627727 16.8295714,12.1873103 12.576,12.1873103 C8.32242857,12.1873103 4.56528571,11.1627727 2.29028571,9.59918097 L2.29028571,14.6649503 C2.29028571,14.9662849 2.42957143,15.3011012 2.76171429,15.6794435 C3.17957143,16.1582307 3.851,16.640366 4.73671429,17.0689308 C6.60223614,17.9746109 9.17311424,18.5365517 11.9682201,18.6080258 L11.9678267,20.7515961 C7.96562578,20.6591413 4.45623016,19.6591148 2.29028571,18.1704762 L2.29028571,23.905878 C2.29028571,24.2072126 2.42957143,24.5420288 2.76171429,24.9203711 C3.17957143,25.3991583 3.851,25.8812937 4.73671429,26.3098584 C6.60223614,27.2155385 9.17311424,27.7774793 11.9682201,27.8489534 L11.9682642,29.992536 C5.3076353,29.838828 0.00457142857,27.1720337 0.00457142857,23.905878 L0.00457142857,6.62936112 L0.001,6.54565706 C-0.00257142857,6.35815998 0.00457142857,6.27445593 0.00457142857,6.09365517 C0.00457142857,2.72875218 5.63314286,-1.27897692e-13 12.576,-1.27897692e-13 Z M12.576,2.1428238 C9.54742857,2.1428238 6.73671429,2.71870769 4.73671429,3.68967472 C3.851,4.11823948 3.17957143,4.60037484 2.76171429,5.07916203 C2.42957143,5.45750435 2.29028571,5.79232057 2.29028571,6.09365517 C2.29028571,6.39498976 2.42957143,6.72980598 2.76171429,7.10814831 C3.17957143,7.5869355 3.851,8.06907085 4.73671429,8.49763561 C6.73671429,9.46860265 9.54385714,10.0444865 12.576,10.0444865 C15.6081429,10.0444865 18.4152857,9.46860265 20.4152857,8.49763561 C21.301,8.06907085 21.9724286,7.5869355 22.3902857,7.10814831 C22.7224286,6.72980598 22.8617143,6.39498976 22.8617143,6.09365517 C22.8617143,5.79232057 22.7224286,5.45750435 22.3902857,5.07916203 C21.9724286,4.60037484 21.301,4.11823948 20.4152857,3.68967472 C18.4152857,2.71870769 15.6045714,2.1428238 12.576,2.1428238 Z" id="形状结合"></path>
                            <path d="M22.7078571,23.96975 C22.0066071,23.96975 21.3788571,24.28025 20.9483571,24.76925 L19.8458571,23.9885 C19.9628571,23.666 20.0303571,23.32025 20.0303571,22.958 C20.0303571,22.60175 19.9658571,22.262 19.8526071,21.944 L20.9528571,21.1715 C21.3965553,21.676649 22.0362653,21.9663084 22.7086071,21.9665 C24.0023571,21.9665 25.0553571,20.91425 25.0553571,19.61975 C25.0553571,18.32525 24.0023571,17.273 22.7086071,17.273 C21.9686681,17.2741972 21.2725452,17.6239709 20.8299519,18.2169484 C20.3873586,18.809926 20.2500373,19.5767843 20.4593572,20.2865 L19.3583571,21.059 C18.8886527,20.4767644 18.2203443,20.088654 17.4818571,19.96925 L17.4818571,18.6425 C18.5669451,18.4128188 19.3438143,17.4558785 19.3456072,16.34675 C19.3456072,15.05225 18.2926072,14 16.9988572,14 C15.7051072,14 14.6528571,15.05225 14.6528571,16.34675 C14.6546312,17.4395122 15.4097262,18.3867227 16.4746072,18.632 L16.4746072,19.976 C15.0272912,20.2317953 13.9714977,21.4882559 13.9688571,22.958 C13.9715188,24.4360739 15.0390053,25.6971018 16.4963571,25.94375 L16.4963571,27.36275 C15.4213763,27.6002898 14.6554352,28.5523388 14.6536071,29.65325 C14.6528571,30.94775 15.7051072,32 16.9988572,32 C18.2926072,32 19.3456072,30.94775 19.3456072,29.65325 C19.3440608,28.5522393 18.5779955,27.6000359 17.5028572,27.36275 L17.5028572,25.94375 C18.2276299,25.8214971 18.8833023,25.4400877 19.3478572,24.8705 L20.4578571,25.6565 C20.3944578,25.8707767 20.3621284,26.093041 20.3618571,26.3165 C20.3618571,27.61025 21.4148571,28.66325 22.7086071,28.66325 C24.0023571,28.66325 25.0553571,27.611 25.0553571,26.3165 C25.0553571,25.022 24.0016071,23.96975 22.7078571,23.96975 L22.7078571,23.96975 Z M22.7078571,18.48275 C23.3356071,18.48275 23.8456072,18.9935 23.8456072,19.6205 C23.8456072,20.2475 23.3356072,20.75825 22.7078571,20.75825 C22.0808571,20.75825 21.5701071,20.2475 21.5701071,19.6205 C21.5701071,18.9935 22.0808571,18.48275 22.7078571,18.48275 Z M15.8611071,16.34675 C15.8611071,15.71975 16.3711071,15.209 16.9988572,15.209 C17.6266072,15.209 18.1366071,15.71975 18.1366071,16.34675 C18.1366071,16.97375 17.6266072,17.4845 16.9988572,17.4845 C16.3711072,17.4845 15.8611071,16.97375 15.8611071,16.34675 L15.8611071,16.34675 Z M18.1366071,29.65325 C18.1366071,30.28025 17.6266072,30.791 16.9988572,30.791 C16.3711072,30.791 15.8611071,30.28025 15.8611071,29.65325 C15.8611071,29.02625 16.3711071,28.5155 16.9988572,28.5155 C17.6266072,28.5155 18.1366071,29.02625 18.1366071,29.65325 Z M16.9988572,24.545 C16.122724,24.5441731 15.4126841,23.8341331 15.4118571,22.958 C15.4118571,22.08275 16.1236072,21.371 16.9988572,21.371 C17.8741072,21.371 18.5858571,22.08275 18.5858571,22.958 C18.5850302,23.8341331 17.8749903,24.5441731 16.9988572,24.545 L16.9988572,24.545 Z M22.7078571,27.45425 C22.0798378,27.4534236 21.5709335,26.9445194 21.5701071,26.3165 C21.5701071,25.6895 22.0801071,25.17875 22.7078571,25.17875 C23.3356071,25.17875 23.8456072,25.6895 23.8456072,26.3165 C23.8456072,26.9435 23.3356072,27.45425 22.7078571,27.45425 Z" id="形状"></path>
                        </g>
                    </g>
                </g>
            </g>
        </g>
    </g>
</svg>