<?xml version="1.0" encoding="UTF-8"?>
<svg width="33px" height="25px" viewBox="0 0 33 25" version="1.1" xmlns="http://www.w3.org/2000/svg" xmlns:xlink="http://www.w3.org/1999/xlink">
    <!-- Generator: Sketch 61.2 (89653) - https://sketch.com -->
    <title>数据写出_流数据输出</title>
    <desc>Created with Sketch.</desc>
    <g id="Zora" stroke="none" stroke-width="1" fill="none" fill-rule="evenodd">
        <g id="数据计算创建-流程基本信息" transform="translate(-71.000000, -546.000000)" fill="#536385" fill-rule="nonzero">
            <g id="编组-9" transform="translate(35.500000, 72.000000)">
                <g id="编组-5" transform="translate(16.500000, 459.000000)">
                    <g id="编组-2" transform="translate(7.000000, 0.000000)">
                        <g id="数据写出_流数据输出" transform="translate(12.000000, 15.000000)">
                            <g id="编组-19" transform="translate(0.000000, -0.000000)">
                                <path d="M10.7,3.29999999 C10.3,2.9 9.70000001,2.9 9.3,3.29999999 L6.5,6.09999999 C6.10000001,6.5 6.10000001,7.1 6.5,7.5 C6.89999999,7.89999998 7.50000001,7.89999998 7.9,7.5 L8.99999999,6.39999997 L8.99999999,10 C8.99999999,10.6 9.39999998,11 10,11 C10.6,11 11,10.6 11,10 L11,6.39999997 L12.1,7.5 C12.5,7.89999998 13.1,7.89999998 13.5,7.5 C13.9,7.1 13.9,6.5 13.5,6.09999999 L10.7,3.29999999 Z M22,9.49999998 C22,7.79999997 19.6,6.39999997 16,5.59999999 L16,7.49999999 C18.4,7.99999998 20,8.69999998 20,9.49999998 C20,10.9 15.5,12 10,12 C4.5,12 -3.40838469e-13,10.9 -3.40838469e-13,9.49999998 C-3.40838469e-13,8.69999998 1.6,7.99999998 4,7.49999999 L4,5.59999999 C0.400000011,6.4 -2,7.8 -2,9.49999998 L-2,17.5 C-2,20 3.39999999,22 10,22 C16.6,22 22,20 22,17.5 L22,17.2 L22,9.99999997 L22,9.79999999 L22,9.49999998 Z M10,20 C4.5,20 -4.55781879e-09,18.9 -4.55781879e-09,17.5 L-4.55781879e-09,12 C2.09999999,13.2 5.8,14 10,14 C14.2,14 17.9,13.2 20,12 L20,17.5 C20,18.9 15.5,20 10,20 Z" id="形状" transform="translate(10.000000, 12.500000) rotate(-270.000000) translate(-10.000000, -12.500000) "></path>
                                <path d="M29.739,13.96975 C29.03775,13.96975 28.41,14.28025 27.9795,14.76925 L26.877,13.9885 C26.994,13.666 27.0615,13.32025 27.0615,12.958 C27.0615,12.60175 26.997,12.262 26.88375,11.944 L27.984,11.1715 C28.4276981,11.676649 29.0674082,11.9663084 29.73975,11.9665 C31.0335,11.9665 32.0865,10.91425 32.0865,9.61974999 C32.0865,8.32524999 31.0335,7.27299999 29.73975,7.27299999 C28.999811,7.27419717 28.303688,7.62397085 27.8610948,8.21694843 C27.4185015,8.809926 27.2811801,9.57678429 27.4905,10.2865 L26.3895,11.059 C25.9197955,10.4767644 25.2514872,10.088654 24.513,9.96925 L24.513,8.64250001 C25.5980879,8.41281884 26.3749572,7.4558785 26.37675,6.34675 C26.37675,5.05224999 25.32375,4 24.03,4 C22.73625,4 21.684,5.05224999 21.684,6.34675 C21.6857741,7.43951224 22.440869,8.38672275 23.50575,8.63199999 L23.50575,9.976 C22.0584341,10.2317953 21.0026406,11.4882559 21,12.958 C21.0026616,14.4360739 22.0701482,15.6971018 23.5275,15.94375 L23.5275,17.36275 C22.4525192,17.6002898 21.6865781,18.5523388 21.68475,19.65325 C21.684,20.94775 22.73625,22 24.03,22 C25.32375,22 26.37675,20.94775 26.37675,19.65325 C26.3752037,18.5522393 25.6091383,17.6000359 24.534,17.36275 L24.534,15.94375 C25.2587728,15.8214971 25.9144452,15.4400877 26.379,14.8705 L27.489,15.6565 C27.4256006,15.8707767 27.3932713,16.093041 27.393,16.3165 C27.393,17.61025 28.446,18.66325 29.73975,18.66325 C31.0335,18.66325 32.0865,17.611 32.0865,16.3165 C32.0865,15.022 31.03275,13.96975 29.739,13.96975 L29.739,13.96975 Z M29.739,8.48275001 C30.36675,8.48275001 30.87675,8.99350001 30.87675,9.6205 C30.87675,10.2475 30.36675,10.75825 29.739,10.75825 C29.112,10.75825 28.60125,10.2475 28.60125,9.6205 C28.60125,8.99350001 29.112,8.48275001 29.739,8.48275001 Z M22.89225,6.34675 C22.89225,5.71975001 23.40225,5.20900001 24.03,5.20900001 C24.65775,5.20900001 25.16775,5.71975001 25.16775,6.34675 C25.16775,6.97374999 24.65775,7.48449999 24.03,7.48449999 C23.40225,7.48449999 22.89225,6.97374999 22.89225,6.34675 L22.89225,6.34675 Z M25.16775,19.65325 C25.16775,20.28025 24.65775,20.791 24.03,20.791 C23.40225,20.791 22.89225,20.28025 22.89225,19.65325 C22.89225,19.02625 23.40225,18.5155 24.03,18.5155 C24.65775,18.5155 25.16775,19.02625 25.16775,19.65325 Z M24.03,14.545 C23.1538669,14.5441731 22.4438269,13.8341331 22.443,12.958 C22.443,12.08275 23.15475,11.371 24.03,11.371 C24.90525,11.371 25.617,12.08275 25.617,12.958 C25.6161731,13.8341331 24.9061331,14.5441731 24.03,14.545 L24.03,14.545 Z M29.739,17.45425 C29.1109806,17.4534236 28.6020764,16.9445194 28.60125,16.3165 C28.60125,15.6895 29.11125,15.17875 29.739,15.17875 C30.36675,15.17875 30.87675,15.6895 30.87675,16.3165 C30.87675,16.9435 30.36675,17.45425 29.739,17.45425 Z" id="形状"></path>
                            </g>
                        </g>
                    </g>
                </g>
            </g>
        </g>
    </g>
</svg>