<?xml version="1.0" encoding="UTF-8"?>
<svg width="31px" height="25px" viewBox="0 0 31 25" version="1.1" xmlns="http://www.w3.org/2000/svg" xmlns:xlink="http://www.w3.org/1999/xlink">
    <!-- Generator: Sketch 61.2 (89653) - https://sketch.com -->
    <title>编组 20</title>
    <desc>Created with Sketch.</desc>
    <g id="Zora" stroke="none" stroke-width="1" fill="none" fill-rule="evenodd">
        <g id="数据计算创建-流程基本信息" transform="translate(-177.000000, -546.000000)" fill="#536385">
            <g id="编组-9" transform="translate(35.500000, 72.000000)">
                <g id="编组-6" transform="translate(114.000000, 459.000000)">
                    <g id="编组-2" transform="translate(14.500000, 0.000000)">
                        <g id="编组-20" transform="translate(13.000000, 15.000000)">
                            <g id="数据写出_流数据输出" fill-rule="nonzero">
                                <g id="编组-19" transform="translate(0.000000, -0.000000)">
                                    <path d="M10.7,3.29999999 C10.3,2.9 9.70000001,2.9 9.3,3.29999999 L6.5,6.09999999 C6.10000001,6.5 6.10000001,7.1 6.5,7.5 C6.89999999,7.89999998 7.50000001,7.89999998 7.9,7.5 L8.99999999,6.39999997 L8.99999999,10 C8.99999999,10.6 9.39999998,11 10,11 C10.6,11 11,10.6 11,10 L11,6.39999997 L12.1,7.5 C12.5,7.89999998 13.1,7.89999998 13.5,7.5 C13.9,7.1 13.9,6.5 13.5,6.09999999 L10.7,3.29999999 Z M22,9.49999998 C22,7.79999997 19.6,6.39999997 16,5.59999999 L16,7.49999999 C18.4,7.99999998 20,8.69999998 20,9.49999998 C20,10.9 15.5,12 10,12 C4.5,12 -3.40838469e-13,10.9 -3.40838469e-13,9.49999998 C-3.40838469e-13,8.69999998 1.6,7.99999998 4,7.49999999 L4,5.59999999 C0.400000011,6.4 -2,7.8 -2,9.49999998 L-2,17.5 C-2,20 3.39999999,22 10,22 C16.6,22 22,20 22,17.5 L22,17.2 L22,9.99999997 L22,9.79999999 L22,9.49999998 Z M10,20 C4.5,20 -4.55781879e-09,18.9 -4.55781879e-09,17.5 L-4.55781879e-09,12 C2.09999999,13.2 5.8,14 10,14 C14.2,14 17.9,13.2 20,12 L20,17.5 C20,18.9 15.5,20 10,20 Z" id="形状" transform="translate(10.000000, 12.500000) rotate(-270.000000) translate(-10.000000, -12.500000) "></path>
                                </g>
                            </g>
                            <rect id="矩形" x="21" y="5" width="10" height="2" rx="1"></rect>
                            <rect id="矩形" x="21" y="9" width="8" height="2" rx="1"></rect>
                            <rect id="矩形" x="21" y="14" width="10" height="2" rx="1"></rect>
                            <rect id="矩形" x="21" y="18" width="5" height="2" rx="1"></rect>
                        </g>
                    </g>
                </g>
            </g>
        </g>
    </g>
</svg>