<?xml version="1.0" encoding="UTF-8" standalone="no"?>
<svg width="16px" height="16px" viewBox="0 0 16 16" version="1.1" xmlns="http://www.w3.org/2000/svg" xmlns:xlink="http://www.w3.org/1999/xlink">
    <!-- Generator: Sketch 46.2 (44496) - http://www.bohemiancoding.com/sketch -->
    <title>icon</title>
    <desc>Created with Sketch.</desc>
    <defs>
        <path d="M18.4489112,17.2160804 L15.3350084,17.2160804 C14.5979899,17.2160804 14,17.8140704 14,18.5510888 L14,21.6649916 C14,22.4020101 14.5979899,23 15.3350084,23 L18.4489112,23 C19.1859296,23 19.7839196,22.4020101 19.7839196,21.6649916 L19.7839196,18.5510888 C19.7822446,17.8140704 19.1859296,17.2160804 18.4489112,17.2160804 L18.4489112,17.2160804 Z M18.4489112,10.0988275 L15.3350084,10.0988275 C14.5979899,10.0988275 14,10.6968174 14,11.4338358 L14,14.5477387 C14,15.2847571 14.5979899,15.8827471 15.3350084,15.8827471 L18.4489112,15.8827471 C19.1859296,15.8827471 19.7839196,15.2847571 19.7839196,14.5477387 L19.7839196,11.4338358 C19.7822446,10.6968174 19.1859296,10.0988275 18.4489112,10.0988275 L18.4489112,10.0988275 Z M25.5661642,17.2160804 L22.4522613,17.2160804 C21.7152429,17.2160804 21.1172529,17.8140704 21.1172529,18.5510888 L21.1172529,21.6649916 C21.1172529,22.4020101 21.7152429,23 22.4522613,23 L25.5661642,23 C26.3031826,23 26.9011725,22.4020101 26.9011725,21.6649916 L26.9011725,18.5510888 C26.9011725,17.8140704 26.3031826,17.2160804 25.5661642,17.2160804 L25.5661642,17.2160804 Z M27.5678392,11.6566164 L25.3433836,9.4321608 C24.879397,8.8559464 24.0284757,8.8559464 23.5644891,9.4321608 L21.3400335,11.6566164 C20.7638191,12.120603 20.7638191,12.9715243 21.3400335,13.4355109 L23.5644891,15.6599665 C24.0284757,16.2361809 24.879397,16.2361809 25.3433836,15.6599665 L27.5678392,13.4355109 C28.1440536,12.9715243 28.1440536,12.120603 27.5678392,11.6566164 Z" id="path-1"></path>
        <filter x="-14.3%" y="-7.1%" width="128.6%" height="128.6%" filterUnits="objectBoundingBox" id="filter-2">
            <feOffset dx="0" dy="1" in="SourceAlpha" result="shadowOffsetOuter1"></feOffset>
            <feGaussianBlur stdDeviation="0.5" in="shadowOffsetOuter1" result="shadowBlurOuter1"></feGaussianBlur>
            <feColorMatrix values="0 0 0 0 0   0 0 0 0 0   0 0 0 0 0  0 0 0 0.5 0" type="matrix" in="shadowBlurOuter1"></feColorMatrix>
        </filter>
    </defs>
    <g id="概要" stroke="none" stroke-width="1" fill="none" fill-rule="evenodd">
        <g id="业务运维" transform="translate(-24.000000, -120.000000)" fill-rule="nonzero">
            <g id="side-left" transform="translate(-36.000000, 47.000000)">
                <g transform="translate(43.000000, 60.000000)" id="概览页">
                    <g transform="translate(4.000000, 4.000000)">
                        <g id="icon">
                            <use fill="black" fill-opacity="1" filter="url(#filter-2)" xlink:href="#path-1"></use>
                            <use fill="#FFFFFF" fill-rule="evenodd" xlink:href="#path-1"></use>
                        </g>
                    </g>
                </g>
            </g>
        </g>
    </g>
</svg>