<?xml version="1.0" encoding="UTF-8" standalone="no"?>
<svg width="16px" height="14px" viewBox="0 0 16 14" version="1.1" xmlns="http://www.w3.org/2000/svg" xmlns:xlink="http://www.w3.org/1999/xlink">
    <!-- Generator: Sketch 46.2 (44496) - http://www.bohemiancoding.com/sketch -->
    <title>icon</title>
    <desc>Created with Sketch.</desc>
    <defs>
        <path d="M27.0000292,10 L14.9999708,10 C14.4477548,10 14,10.4293577 14,10.9600097 L14,18.6398821 C14,19.1701049 14.4477548,19.5999664 14.9999708,19.5999664 L20,19.5999664 L20,21.0399903 L17.4999854,21.0399903 C17.2241106,21.0399903 16.9999903,21.2551356 16.9999903,21.5199858 L16.9999903,22 L25.0000097,22 L25.0000097,21.5199858 C25.0000097,21.2551356 24.7759088,21.0399903 24.5000146,21.0399903 L22.0000194,21.0399903 L22.0000194,19.5999664 L27.0000292,19.5999664 C27.5522452,19.5999664 28,19.1701049 28,18.6398821 L28,10.9600097 C28,10.4293577 27.5522452,10 27.0000292,10 Z M14.9999708,17.2002563 L27.0000292,17.2002563 L27.0000292,17.6798724 L14.9999708,17.6798724 L14.9999708,17.2002563 Z M21.0000486,19.1204 C20.7241543,19.1204 20.5000534,18.9052547 20.5000534,18.6398821 C20.5000534,18.3750319 20.7241543,18.1598866 21.0000486,18.1598866 C21.2758457,18.1598866 21.5000243,18.3750319 21.5000243,18.6398821 C21.5000243,18.9052547 21.2758457,19.1204 21.0000486,19.1204 Z" id="path-1"></path>
        <filter x="-14.3%" y="-8.3%" width="128.6%" height="133.3%" filterUnits="objectBoundingBox" id="filter-2">
            <feOffset dx="0" dy="1" in="SourceAlpha" result="shadowOffsetOuter1"></feOffset>
            <feGaussianBlur stdDeviation="0.5" in="shadowOffsetOuter1" result="shadowBlurOuter1"></feGaussianBlur>
            <feColorMatrix values="0 0 0 0 0   0 0 0 0 0   0 0 0 0 0  0 0 0 0.5 0" type="matrix" in="shadowBlurOuter1"></feColorMatrix>
        </filter>
    </defs>
    <g id="概要" stroke="none" stroke-width="1" fill="none" fill-rule="evenodd">
        <g id="业务运维" transform="translate(-24.000000, -154.000000)" fill-rule="nonzero">
            <g id="side-left" transform="translate(-36.000000, 47.000000)">
                <g transform="translate(43.000000, 60.000000)" id="工作台">
                    <g transform="translate(4.000000, 37.000000)">
                        <g id="icon">
                            <use fill="black" fill-opacity="1" filter="url(#filter-2)" xlink:href="#path-1"></use>
                            <use fill="#FFFFFF" fill-rule="evenodd" xlink:href="#path-1"></use>
                        </g>
                    </g>
                </g>
            </g>
        </g>
    </g>
</svg>