<?xml version="1.0" encoding="UTF-8" standalone="no"?>
<svg width="16px" height="16px" viewBox="0 0 16 16" version="1.1" xmlns="http://www.w3.org/2000/svg" xmlns:xlink="http://www.w3.org/1999/xlink">
    <!-- Generator: Sketch 46.2 (44496) - http://www.bohemiancoding.com/sketch -->
    <title>icon</title>
    <desc>Created with Sketch.</desc>
    <defs>
        <path d="M20.4489112,14.2160804 L17.3350084,14.2160804 C16.5979899,14.2160804 16,14.8140704 16,15.5510888 L16,18.6649916 C16,19.4020101 16.5979899,20 17.3350084,20 L20.4489112,20 C21.1859296,20 21.7839196,19.4020101 21.7839196,18.6649916 L21.7839196,15.5510888 C21.7822446,14.8140704 21.1859296,14.2160804 20.4489112,14.2160804 L20.4489112,14.2160804 Z M20.4489112,7.09882747 L17.3350084,7.09882747 C16.5979899,7.09882747 16,7.69681742 16,8.43383585 L16,11.5477387 C16,12.2847571 16.5979899,12.8827471 17.3350084,12.8827471 L20.4489112,12.8827471 C21.1859296,12.8827471 21.7839196,12.2847571 21.7839196,11.5477387 L21.7839196,8.43383585 C21.7822446,7.69681742 21.1859296,7.09882747 20.4489112,7.09882747 L20.4489112,7.09882747 Z M27.5661642,14.2160804 L24.4522613,14.2160804 C23.7152429,14.2160804 23.1172529,14.8140704 23.1172529,15.5510888 L23.1172529,18.6649916 C23.1172529,19.4020101 23.7152429,20 24.4522613,20 L27.5661642,20 C28.3031826,20 28.9011725,19.4020101 28.9011725,18.6649916 L28.9011725,15.5510888 C28.9011725,14.8140704 28.3031826,14.2160804 27.5661642,14.2160804 L27.5661642,14.2160804 Z M29.5678392,8.65661642 L27.3433836,6.4321608 C26.879397,5.8559464 26.0284757,5.8559464 25.5644891,6.4321608 L23.3400335,8.65661642 C22.7638191,9.12060302 22.7638191,9.97152429 23.3400335,10.4355109 L25.5644891,12.6599665 C26.0284757,13.2361809 26.879397,13.2361809 27.3433836,12.6599665 L29.5678392,10.4355109 C30.1440536,9.97152429 30.1440536,9.12060302 29.5678392,8.65661642 Z" id="path-1"></path>
        <filter x="-14.3%" y="-7.1%" width="128.6%" height="128.6%" filterUnits="objectBoundingBox" id="filter-2">
            <feOffset dx="0" dy="1" in="SourceAlpha" result="shadowOffsetOuter1"></feOffset>
            <feGaussianBlur stdDeviation="0.5" in="shadowOffsetOuter1" result="shadowBlurOuter1"></feGaussianBlur>
            <feColorMatrix values="0 0 0 0 0   0 0 0 0 0   0 0 0 0 0  0 0 0 0.5 0" type="matrix" in="shadowBlurOuter1"></feColorMatrix>
        </filter>
    </defs>
    <g id="配置/应用" stroke="none" stroke-width="1" fill="none" fill-rule="evenodd">
        <g id="配置-应用" transform="translate(-26.000000, -117.000000)" fill-rule="nonzero">
            <g id="side-left" transform="translate(-36.000000, 47.000000)">
                <g transform="translate(43.000000, 60.000000)" id="概览页">
                    <g transform="translate(4.000000, 4.000000)">
                        <g id="icon">
                            <use fill="black" fill-opacity="1" filter="url(#filter-2)" xlink:href="#path-1"></use>
                            <use fill="#BCC0D6" fill-rule="evenodd" xlink:href="#path-1"></use>
                        </g>
                    </g>
                </g>
            </g>
        </g>
    </g>
</svg>