<svg width="16px" height="13px" viewBox="0 0 16 13" version="1.1" xmlns="http://www.w3.org/2000/svg" xmlns:xlink="http://www.w3.org/1999/xlink">
    <!-- Generator: Sketch 61.2 (89653) - https://sketch.com -->
    <title>收起左侧导航</title>
    <desc>Created with Sketch.</desc>
    <defs>
        <rect id="path-1" x="0" y="0" width="16" height="16"></rect>
    </defs>
    <g id="页面-1" stroke="none" stroke-width="1" fill="none" fill-rule="evenodd">
        <g id="监控策略=监控策略详情备份-2" transform="translate(-66.000000, -1644.000000)">
            <g id="纵向一级导航_折叠" transform="translate(0.000000, 60.000000)">
                <g id="navi-line">
                    <g id="编组-8">
                        <g id="编组-27" transform="translate(0.000000, 1565.000000)">
                            <g id="编组-28">
                                <g id="收起左侧导航" transform="translate(66.000000, 17.000000)">
                                    <g id="折叠-(1)">
                                        <mask id="mask-2" fill="white">
                                            <use xlink:href="#path-1"></use>
                                        </mask>
                                        <g id="蒙版"></g>
                                        <g mask="url(#mask-2)" fill="#282F59" fill-rule="nonzero" id="形状" opacity="0.5">
                                            <g transform="translate(0.000000, 2.000000)">
                                                <path d="M0.0164030573,0.901167987 C0.0164030573,0.404790034 0.413674532,0.00164042815 0.903333342,0.00164042815 L15.0874803,0.00164042815 C15.5771391,0.00164042815 15.9744094,0.404790034 15.9744094,0.901167987 C15.9744094,1.39838583 15.5771391,1.80153543 15.0874803,1.80153543 L0.903333342,1.80153543 C0.668162746,1.80153543 0.442230979,1.70662729 0.275931767,1.53780839 C0.109237105,1.36786978 0.016025344,1.1392144 0.0164030573,0.901167987 Z M5.33545933,6.30085303 C5.33545933,6.06232283 5.42952756,5.8330315 5.59582677,5.6642126 C5.7612861,5.49623359 5.98721784,5.40132547 6.22238846,5.40132547 L15.0874803,5.40132547 C15.5771391,5.40132547 15.9744094,5.80447507 15.9744094,6.30085303 C15.9744094,6.79807087 15.5771391,7.20038059 15.0874803,7.20038059 L6.22322835,7.20038059 C5.98805775,7.20038059 5.76212598,7.10631235 5.59582677,6.93749343 C5.42913211,6.76755482 5.33592035,6.53889944 5.33629921,6.30085303 L5.33545933,6.30085303 Z M0.166745399,6.30085303 L3.56244094,3.60143044 L3.56244094,9.00027559 L0.16758531,6.30085303 L0.166745399,6.30085303 Z M0.0164042077,11.7005381 C0.0164042077,11.2033202 0.413674557,10.8001706 0.903333342,10.8001706 L15.0874803,10.8001706 C15.5771391,10.8001706 15.9744094,11.2033202 15.9744094,11.7005381 C15.9744094,12.196916 15.5771391,12.6000656 15.0874803,12.6000656 L0.903333342,12.6000656 C0.413674532,12.6000656 0.0164042077,12.196916 0.0164042077,11.7005381 Z"></path>
                                            </g>
                                        </g>
                                    </g>
                                </g>
                            </g>
                        </g>
                    </g>
                </g>
            </g>
        </g>
    </g>
</svg>