
<svg width="86px" height="62px" viewBox="0 0 86 62" version="1.1" xmlns="http://www.w3.org/2000/svg" xmlns:xlink="http://www.w3.org/1999/xlink">
    <defs>
        <rect id="path-1" x="0" y="0" width="100" height="100"></rect>
    </defs>
    <g id="典型页面及标注" stroke="none" stroke-width="1" fill="none" fill-rule="evenodd">
        <g id="趋势图-无数据" transform="translate(-721.000000, -644.000000)">
            <g id="编组-20" transform="translate(319.000000, 60.000000)">
                <g id="编组-6" transform="translate(64.000000, 461.000000)">
                    <g id="编组-10" transform="translate(12.000000, 48.000000)">
                        <g id="编组-22" transform="translate(318.000000, 56.000000)">
                            <g id="无数据">
                                <mask id="mask-2" fill="white">
                                    <use xlink:href="#path-1"></use>
                                </mask>
                                <g id="蒙版"></g>
                                <g mask="url(#mask-2)" fill="#14253A" fill-rule="nonzero" id="形状" opacity="0.200000003">
                                    <g transform="translate(8.000000, 19.000000)">
                                        <path d="M4.09424374,45.1425399 C4.45983793,45.1425399 4.75693052,45.4259456 4.75693052,45.7866477 L4.75693052,47.1144014 L6.09428872,47.1144643 C6.44373438,47.134062 6.71702958,47.4223733 6.71702958,47.7714215 C6.71702958,48.1204696 6.44373438,48.408781 6.09428872,48.4283787 L4.75693052,48.4283787 L4.75693052,49.7551258 C4.74882303,50.1139965 4.45418019,50.4003721 4.09424374,50.3992188 C3.92162017,50.4024178 3.75479714,50.3370738 3.63049734,50.2175709 C3.50619754,50.0980681 3.43461022,49.9342023 3.43149388,49.7620455 L3.43149388,48.4274351 L2.09419875,48.4274351 C1.73470619,48.4215166 1.44594391,48.1300156 1.44437967,47.7714529 C1.44437967,47.4088007 1.72948764,47.1145272 2.09419875,47.1145272 L3.43149388,47.1145272 L3.43149388,45.7866477 C3.43909959,45.4275348 3.73407751,45.1408607 4.09424374,45.1425399 Z M81.964777,32.9639414 C84.1605499,32.9639414 85.9390685,34.7276955 85.9390685,36.9056216 C85.9390685,39.0135375 84.2700296,40.7355963 82.1693723,40.8411664 L81.964777,40.8473018 C79.7690672,40.8473018 77.9905486,39.0815348 77.9905486,36.9056216 C77.9905486,34.7286391 79.7690041,32.9639414 81.964777,32.9639414 Z M81.964777,34.933757 C80.8669221,34.933757 79.9776628,35.8156521 79.9776628,36.9056216 C79.9776628,37.9935782 80.8669221,38.8754552 81.964777,38.8754552 C83.0616857,38.8754552 83.9519543,37.9935782 83.9519543,36.9056216 C83.9509021,36.3812543 83.7408831,35.8788105 83.3681564,35.5089594 C82.9954298,35.1391083 82.4905695,34.932188 81.964777,34.933757 Z M3.97624773,17.0786222 C6.17101136,17.0786222 7.95053921,18.8433827 7.95053921,21.0203024 C7.95053921,23.197222 6.17101136,24.9619825 3.97624773,24.9619825 C1.78047486,24.9619825 0.00101008983,23.1982285 -1.56441082e-10,21.0223153 C-0.00097684856,18.9133635 1.66809065,17.1903868 3.76777586,17.0838452 L3.97624773,17.0786222 Z M3.97624773,19.0494446 C2.87933899,19.0494446 1.98913353,19.9314022 1.98913353,21.0203024 C1.98913353,22.1092654 2.87933899,22.9911425 3.97624773,22.9911425 C5.0741657,22.9911425 5.96336193,22.1092654 5.96336193,21.0203024 C5.96204228,20.4961206 5.751914,19.993945 5.37923007,19.6243132 C5.00654615,19.2546815 4.50185485,19.0478918 3.97624773,19.0494446 Z M27.2931172,1.65270935 C27.4656133,1.6514404 27.6315517,1.71858856 27.7543656,1.83939368 C27.8526168,1.93603778 27.9168174,2.06067707 27.9391137,2.1947463 L27.9478562,2.29677624 L27.9478562,3.62358631 L29.2861606,3.62358631 C29.6353746,3.64346626 29.9083448,3.93167855 29.9083448,4.28051204 C29.9083448,4.59446218 29.687239,4.85930915 29.3884408,4.92363153 L29.2861606,4.93743777 L27.9478562,4.93743777 L27.9478562,6.26525433 C27.9409178,6.62293696 27.6457806,6.90928436 27.2851064,6.90928436 C26.952748,6.90928436 26.6778366,6.67590888 26.6305995,6.36176721 L26.6234288,6.26525433 L26.6234288,4.93844426 L25.2850614,4.93844426 C24.9599282,4.93844426 24.6897919,4.68624902 24.6433633,4.37610572 L24.6363146,4.28151853 C24.6363146,3.94931819 24.8762158,3.67947201 25.1891553,3.63271131 L25.2850614,3.62553639 L26.6234288,3.62553639 L26.6234288,2.29778274 C26.6303371,1.97169616 26.8742121,1.70526949 27.1887811,1.66035645 L27.2931172,1.65270935 Z M61.4894205,-9.41469125e-13 C62.0378749,-9.41469125e-13 62.4829461,0.446883117 62.4829461,0.998818994 L62.4830092,2.95776989 L64.4562465,2.95776989 C65.0126485,2.95776989 65.4627659,3.39471388 65.4627659,3.94268669 C65.4627659,4.48663352 65.0126485,4.92760349 64.4562465,4.92760349 L62.4830092,4.92760349 L62.4830092,6.88554789 C62.4830092,7.43748377 62.0419118,7.88436688 61.4894836,7.88436688 C61.224913,7.8833179 60.9715965,7.77749567 60.785262,7.59018032 C60.5989275,7.40286497 60.494839,7.14940072 60.495895,6.88554789 L60.495895,4.9266599 L58.5217116,4.9266599 C58.0119798,4.93282827 57.5871162,4.55543398 57.5233673,4.06317195 L57.5151921,3.94168019 C57.5151921,3.39767045 57.9653095,2.95676339 58.5217116,2.95676339 L60.495895,2.95676339 L60.495895,0.998818994 C60.4958319,0.446883117 60.9359831,-9.41469125e-13 61.4894205,-9.41469125e-13 Z"></path>
                                        <path d="M62.3648264,61.8113573 L20.4124081,61.8113573 L20.2467049,61.8061474 C19.7274316,61.7758953 18.0946812,61.5965004 16.9783315,60.5528798 C15.833648,59.4822582 15.6194739,57.9789441 15.5798849,57.500123 L15.5713546,57.3570439 L15.5708,48.2293241 L15.5654184,48.0824716 C15.5525994,47.5875449 15.5732053,46.4435034 15.953122,45.18755 C16.3599998,43.8416594 16.862714,42.9580041 17.006639,42.7195736 L21.5788141,30.5190596 L21.6517997,30.4013749 L21.7646472,30.2412046 C22.0434568,29.8584479 22.7266237,29.0017975 23.6114983,28.4524355 C24.6619117,27.8003741 25.9222458,27.7198842 26.3749085,27.7134654 L55.3763662,27.7134654 L55.6248241,27.7320679 C56.1387742,27.7814927 57.3752982,27.9542922 58.3642584,28.5184205 C59.4658641,29.1476592 60.3526056,30.2472964 60.5190401,30.4608975 C60.5531455,30.5047742 60.5845225,30.5500113 60.6141943,30.5969491 L66.0444623,43.3113982 L66.1123321,43.4290828 L66.2986798,43.8040476 C66.5092061,44.2453325 66.8331205,44.9826523 67.0249936,45.7055666 C67.2934034,46.718811 67.3582038,47.8385158 67.3680943,48.052457 L67.3700394,48.1255848 L67.3691085,57.3402505 C67.3543674,57.9407491 67.1814589,59.4321807 65.9158848,60.5630837 C64.6174907,61.7219033 62.869587,61.8113573 62.3648264,61.8113573 Z M18.4098504,46.1868492 C18.1660968,46.9923548 18.163176,47.7515193 18.1689083,47.9837192 L18.1755461,48.1704818 L18.1192206,57.9456949 L18.1226311,57.9705244 C18.1441175,58.1337863 18.2440465,58.5293564 18.4162789,58.7079241 L18.4394706,58.7324134 L18.466755,58.752481 C18.7078804,58.9296883 19.3057488,59.0313869 19.514133,59.0439716 L63.1770528,59.0446519 C63.5249283,59.0405704 64.1330282,58.9249265 64.4086002,58.6786731 C64.6551825,58.4582694 64.7104333,58.0800459 64.7104333,58.019503 L64.7070228,57.9144031 L64.7633483,48.1786449 L64.7432078,47.8973157 C64.7105017,47.5218809 64.6445098,47.0045194 64.5341597,46.5902422 C64.3735231,45.9817513 64.0140518,45.2528548 63.9434535,45.1134019 L63.9240134,45.079389 L58.0896511,31.6533279 L58.0729394,31.6332603 C57.8710352,31.3907483 57.386738,30.8723916 56.9999823,30.6513077 C56.6650669,30.4601552 55.9829581,30.3377087 55.6316721,30.3050564 L55.5951792,30.3033557 L25.964508,30.3380338 C25.695075,30.3404148 25.1944072,30.4115017 24.9631723,30.5557164 C24.6781787,30.7327961 24.3472281,31.1090904 24.1627004,31.3450882 L24.0795004,31.4553577 L19.1513027,44.4406267 L19.0817276,44.5600119 C18.9817986,44.736879 18.6710981,45.3232615 18.4098504,46.1868492 Z M39.7433416,20.9188773 L39.7388448,14.1820325 C39.739972,13.2268602 40.2016634,12.5168555 41.1594341,12.5155436 C42.1175265,12.5164804 42.36417,13.335624 42.3654858,14.2911165 L42.3699826,21.0279613 C42.368855,21.9832662 42.1225168,22.7124171 41.1646129,22.7135416 C40.2065759,22.7126045 39.7444696,21.8743148 39.7433416,20.9188773 Z M51.4982074,21.4592299 C51.467446,21.0637154 51.6354773,20.6775419 51.8859862,20.3691163 L55.558404,16.3757922 C55.8877295,15.9693854 56.3840095,15.7337385 56.9079562,15.7349647 C57.3090362,15.7349647 57.4368507,15.8596092 57.4338914,15.7909908 C57.430932,15.7223724 58.0209202,16.4985022 58.0672294,16.9555926 C58.1166618,17.412145 57.9806895,17.8694236 57.6896822,18.2252944 L54.0176055,22.2186185 C53.6895847,22.6249835 53.1942176,22.8607331 52.6711228,22.8594324 C51.775283,22.6896148 51.5652744,22.321542 51.4982074,21.4592299 Z M64.8521361,45.5013758 C65.8098523,45.5019369 66.5864107,46.2754754 66.5881029,47.2305918 C66.5875176,47.9781882 66.1125282,48.0863568 65.4469095,48.0993133 L49.5988196,48.1089184 L49.5227645,48.4072116 C48.5814544,52.1074755 45.2292308,54.6921161 41.3705414,54.6921161 C37.5043488,54.6921161 34.1453041,52.1071354 33.2022887,48.4068715 L33.1265747,48.1085783 L17.1224447,48.0993011 C16.456552,48.0866885 15.9810928,47.9786744 15.9800653,47.230932 C15.9815686,46.2758928 16.7577121,45.5021594 17.71535,45.5010356 L34.6855343,45.5119197 C35.6429933,45.5143535 36.4182965,46.2883134 36.4197959,47.2431766 C36.4197959,49.9635287 38.5943586,52.0940971 41.3705414,52.0940971 C44.1368335,52.0940971 46.3038931,49.9635288 46.3038931,47.2431766 C46.3059551,46.2881483 47.0815522,45.5143514 48.0391778,45.5119197 L64.8521361,45.5013758 Z M25.5909975,15.7584527 C26.1230423,15.7584527 26.6175712,15.9962029 26.949076,16.41048 L30.3764799,20.011405 C30.9730238,20.7588652 31.2243126,21.6917717 30.4760483,22.2882342 C30.1686575,22.532047 29.7876618,22.6650937 29.3949058,22.6657774 L29.7540521,22.391435 L29.3921774,22.6654373 C28.8640218,22.666862 28.7262494,22.1523368 28.3983609,21.7394076 L24.9712981,18.1388227 C24.3748756,17.3910733 24.2276823,16.7471157 24.8846543,15.9809024 C25.1472049,15.6746948 25.1981386,15.7573116 25.5909975,15.7584527 Z"></path>
                                    </g>
                                </g>
                            </g>
                        </g>
                    </g>
                </g>
            </g>
        </g>
    </g>
</svg>