
<svg width="100px" height="66px" viewBox="0 0 100 66" version="1.1" xmlns="http://www.w3.org/2000/svg" xmlns:xlink="http://www.w3.org/1999/xlink">
    <defs>
        <rect id="path-1" x="0" y="0" width="100" height="100"></rect>
    </defs>
    <g id="典型页面及标注" stroke="none" stroke-width="1" fill="none" fill-rule="evenodd">
        <g id="列表-无搜索结果" transform="translate(-791.000000, -374.000000)">
            <g id="编组" transform="translate(791.000000, 357.000000)">
                <g id="暂无数据">
                    <mask id="mask-2" fill="white">
                        <use xlink:href="#path-1"></use>
                    </mask>
                    <g id="蒙版"></g>
                    <g mask="url(#mask-2)" fill="#14253A" fill-rule="nonzero" id="形状" opacity="0.200000003">
                        <g transform="translate(0.000000, 17.000000)">
                            <path d="M86.5682712,15.3176658 C87.6710259,15.3176658 88.5660391,14.4235969 88.5660391,13.3205995 C88.5649813,12.7889829 88.353843,12.2795929 87.9791299,11.9046286 C87.6044168,11.5296643 87.0968659,11.3198833 86.5682712,11.3214832 C85.4645654,11.3214832 84.5705668,12.2155612 84.5705668,13.3205995 C84.5705668,14.4235969 85.4645654,15.3176658 86.5682712,15.3176658 L86.5682712,15.3176658 Z M86.5682712,17.316773 C84.3608595,17.316773 82.5728623,15.5265944 82.5728623,13.3205995 C82.5728623,11.1135204 84.3607961,9.32442602 86.5682712,9.32442602 C88.7757464,9.32442602 90.5637435,11.1125638 90.5637435,13.3205995 C90.5637435,15.5265944 88.7758098,17.3157526 86.5682712,17.3157526 L86.5682712,17.316773 Z M3.99743874,23.3089923 C5.10120802,23.3089923 5.99514319,22.4149235 5.99514319,21.3109056 C5.9938165,20.7794771 5.78256835,20.2703589 5.40789822,19.8956171 C5.0332281,19.5208753 4.52584706,19.3112268 3.99743874,19.3128099 C2.89468408,19.3128099 1.9997343,20.2069515 1.9997343,21.3109056 C1.9997343,22.4149235 2.89468408,23.3089923 3.99743874,23.3089923 L3.99743874,23.3089923 Z M3.99743874,25.3070791 C1.7899636,25.3070791 0.00101524452,23.5189413 2.0253478e-07,21.3129464 C-0.00101397626,19.1058673 1.78698318,17.3157526 3.99344371,17.3147321 L3.99743874,17.3147321 C6.20389927,17.3147321 7.99291104,19.1038903 7.99291104,21.3109056 C7.99291104,23.5179209 6.20389927,25.3070791 3.99743874,25.3070791 L3.99743874,25.3070791 Z M29.3005536,33.2984694 C29.3005536,32.5640944 29.8959397,31.9663903 30.6300737,31.9663903 L39.9585284,31.9663903 C40.4339026,31.9630822 40.8745806,32.216243 41.1132223,32.629739 C41.3518639,33.043235 41.3518639,33.55364 41.1132223,33.967136 C40.8745806,34.380632 40.4339026,34.6337928 39.9585284,34.6304847 L30.6300737,34.6304847 C30.2793288,34.6320952 29.9423137,34.4935088 29.6931698,34.2452137 C29.4440259,33.9969186 29.3031623,33.6592543 29.3015682,33.3065051 L29.3015682,33.2984694 L29.3005536,33.2984694 Z M29.3005536,26.6381378 C29.3005536,25.9028061 29.8939104,25.3071429 30.6241129,25.3071429 L51.9497647,25.3071429 C52.4229554,25.3071429 52.8602017,25.5610296 53.096797,25.9731664 C53.3333924,26.3853033 53.3333924,26.8930768 53.096797,27.3052137 C52.8602017,27.7173505 52.4229554,27.9712405 51.9497647,27.9712405 L30.625064,27.9712405 C30.2746878,27.9720161 29.9383673,27.8327197 29.6901499,27.5840169 C29.4419324,27.335314 29.3021692,26.9975957 29.3016316,26.6452168 L29.3016316,26.6391582 L29.3005536,26.6381378 Z M29.3005536,19.9788903 C29.302757,19.2413575 29.8987593,18.6451181 30.6321029,18.6468052 L45.2823794,18.6468052 C45.6347214,18.645744 45.9730538,18.7854885 46.2229465,19.0353021 C46.4728392,19.2851158 46.6138219,19.6245349 46.6148799,19.9788903 C46.6126419,20.7167727 46.0160694,21.313128 45.2823794,21.3109301 L30.6329907,21.3109301 C29.9015277,21.3153217 29.304988,20.7225686 29.3005536,19.986926 L29.3005536,19.9788903 Z M43.3336299,51.3284439 C44.5819607,50.0826582 45.2840803,48.3871907 45.2840803,46.6185268 C45.2840803,44.8498628 44.5819607,43.1543954 43.3336299,41.9086097 C40.7266977,39.306992 36.5212997,39.306992 33.9143675,41.9086097 C32.6660367,43.1543954 31.9639171,44.8498628 31.9639171,46.6185268 C31.9639171,48.3871907 32.6660367,50.0826582 33.9143675,51.3284439 C36.5212997,53.9300616 40.7266977,53.9300616 43.3336299,51.3284439 L43.3336299,51.3284439 Z M1.33345234,59.9376276 C1.33345234,59.2032526 1.93676504,58.6065689 2.66195782,58.6065689 L10.6598779,58.6065689 C11.3913673,58.6065689 11.9843566,59.2029467 11.9843566,59.9386161 C11.9843566,60.6742854 11.3913673,61.2706633 10.6598779,61.2706633 L2.66195782,61.2706633 C1.92877498,61.2706633 1.33345234,60.6779974 1.33345234,59.9446429 L1.33345234,59.9385842 L1.33345234,59.9376276 Z M16.9826762,2.99866071 L18.9664297,2.99866071 C19.5257971,2.99866071 19.9783133,3.44164541 19.9783133,3.99719388 C19.9783133,4.54866071 19.5257971,4.99572704 18.9664297,4.99572704 L16.9826762,4.99572704 L16.9826762,6.9807398 C16.9826762,7.54030612 16.539228,7.99336735 15.9838556,7.99336735 C15.717875,7.99230386 15.4632084,7.88501865 15.2758809,7.69511369 C15.0885534,7.50520872 14.9839101,7.24824036 14.9849717,6.9807398 L14.9849717,4.99477041 L13.000267,4.99477041 C12.4483996,5.00150511 11.9954835,4.55724801 11.9883833,4.00223214 L11.9883833,3.99617347 C11.9883833,3.44464286 12.4408996,2.99764031 13.000267,2.99764031 L14.9849717,2.99764031 L14.9849717,1.01262755 C14.9849083,0.453061224 15.4274053,0 15.9837922,0 C16.5351696,0 16.9826127,0.453061224 16.9826127,1.01262755 L16.9826127,2.99764031 L16.9826762,2.99866071 Z M63.927177,51.9462372 L67.9336197,51.9462372 C69.3959268,51.943436 70.581128,50.7528018 70.5855584,49.2821429 L70.5855584,10.6565051 C70.586098,9.94925139 70.3067784,9.27085162 69.8092423,8.77102285 C69.3117062,8.27119408 68.636854,7.99102514 67.9336197,7.99234228 L35.9470126,7.99234228 C34.485077,7.9956738 33.3004533,9.18615478 33.2960259,10.6564413 L33.2960259,11.9885204 L58.5952091,11.9885204 C61.5338379,11.9815051 63.9211527,14.3582908 63.9281282,17.2966837 L63.9281282,51.9472577 L63.927177,51.9462372 Z M54.3750006,58.6065689 L58.6101746,58.6065689 C59.3147129,58.6075255 59.9907304,58.3267972 60.4886294,57.8254786 C60.9865283,57.32416 61.2652543,56.6439576 61.2631427,55.9353954 L61.2631427,17.2464286 C61.2655034,16.5592577 60.9958105,15.8993974 60.5136001,15.4125528 C60.0313897,14.9257083 59.3763262,14.6516582 58.6930556,14.6516582 L26.544745,14.6516582 C25.8614607,14.6524692 25.2065104,14.9263631 24.724105,15.4130322 C24.2416996,15.8997014 23.9713947,16.5592406 23.9727029,17.2464286 L23.9727029,55.9364158 C23.9727029,57.4110969 25.1712796,58.6075255 26.6246455,58.6075255 L46.8415819,58.6075255 L46.1564028,57.9214286 C45.4815698,57.2511392 45.2171722,56.267721 45.4641849,55.3467474 L44.2065753,54.0880102 C40.0753355,57.1630102 34.2339698,56.3070791 31.1584955,52.1753189 C28.3991625,48.4726021 28.7709737,43.2918918 32.0304263,40.0260842 C35.6643168,36.3794005 41.5676371,36.3674107 45.2144639,40.0029337 C48.5057104,43.2745548 48.8802355,48.4912617 46.0904532,52.2044643 L47.3490139,53.4631378 C48.268191,53.2146894 49.2493431,53.4781281 49.9230805,54.154273 L54.3750006,58.6075255 L54.3750006,58.6065689 Z M49.5066463,61.2706633 L15.9797972,61.2706633 C15.2466144,61.2706633 14.6523063,60.6779974 14.6512917,59.9446429 L14.6512917,59.9385842 C14.6512917,59.2032526 15.2546044,58.6065689 15.9797972,58.6065689 L22.0188851,58.6065689 C21.5526528,57.7992908 21.3079307,56.8819785 21.3097358,55.9484056 L21.3097358,17.3087372 C21.3117016,14.369324 23.6969872,11.9865434 26.6366306,11.9885842 L30.6330541,11.9885842 L30.6330541,10.6484056 C30.6340687,7.70803571 33.0193543,5.32621173 35.9589977,5.32721666 L67.9185908,5.32721666 C70.856205,5.32021684 73.2435198,7.69802296 73.2504953,10.636352 L73.2504953,49.2901786 C73.251688,50.2234708 73.0066052,51.1403667 72.540268,51.9472577 L79.9079247,51.9472577 C80.6450392,51.9472577 81.2413764,52.5399872 81.2413764,53.2793367 C81.2413764,54.0146684 80.6480196,54.611352 79.9098905,54.611352 L63.9271136,54.611352 L63.9271136,55.9494898 C63.9271136,56.9178571 63.6683879,57.825 63.2168863,58.6075255 L63.9311086,58.6075255 C64.6626155,58.6075255 65.255619,59.2039176 65.255619,59.9396046 C65.255619,60.6752916 64.6626155,61.2716837 63.9311086,61.2716837 L56.925097,61.2716837 C57.548507,62.3182289 57.3793293,63.6578336 56.5155749,64.5144133 C55.478384,65.5537399 53.8020021,65.5577821 52.7598677,64.5234694 L52.7498484,64.5133929 L49.5075341,61.2716837 L49.5066463,61.2706633 Z M97.8884696,39.2936862 L97.8884696,37.9475765 C97.8873972,37.7731684 97.8174162,37.6063459 97.6939478,37.4838707 C97.5704794,37.3613955 97.4036566,37.293319 97.2302411,37.2946239 L97.2221876,37.2955995 C96.8605207,37.2944751 96.5646233,37.5849428 96.5569837,37.9485969 L96.5569837,39.2947066 L95.2114835,39.2947066 C94.8511067,39.2953047 94.5592792,39.5892854 94.5592792,39.9517219 L94.5592792,39.9597577 C94.5592792,40.3163903 94.8519309,40.6257653 95.2114835,40.6257653 L96.5569837,40.6257653 L96.5569837,41.9709184 C96.5569837,42.3375638 96.854645,42.623852 97.2221876,42.623852 C97.584784,42.623852 97.8814941,42.3335459 97.8884696,41.9709184 L97.8884696,40.6247449 L99.2339064,40.6247449 C99.5849815,40.6045901 99.8594065,40.3123933 99.8594065,39.9587372 C99.8594065,39.6050812 99.5849815,39.3128844 99.2339064,39.2927296 L97.8884696,39.2927296 L97.8884696,39.2936862 Z M9.99061549,44.6229592 L11.3351011,44.6229592 C11.6864091,44.6428278 11.9611608,44.935125 11.9611608,45.2889987 C11.9611608,45.6428724 11.6864091,45.9351696 11.3351011,45.9550383 L9.99061549,45.9550383 L9.99061549,47.3001276 C9.98246479,47.6639596 9.68625166,47.9542943 9.32439694,47.953125 C9.15085338,47.9563683 8.98314128,47.8901209 8.85817903,47.7689659 C8.73321678,47.6478109 8.66124794,47.4816798 8.65811498,47.3071429 L8.65811498,45.9540816 L7.3136928,45.9540816 C6.95228434,45.9480813 6.66198311,45.6525503 6.66041054,45.2890306 C6.66041054,44.9213648 6.94703797,44.623023 7.3136928,44.623023 L8.65811498,44.623023 L8.65811498,43.2767857 C8.66576122,42.9127081 8.96231122,42.6220708 9.32439694,42.6237807 C9.69193955,42.6237807 9.99061549,42.9110969 9.99061549,43.2767857 L9.99061549,44.6228954 L9.99061549,44.6229592 Z"></path>
                        </g>
                    </g>
                </g>
            </g>
        </g>
    </g>
</svg>