
<svg width="93px" height="57px" viewBox="0 0 93 57" version="1.1" xmlns="http://www.w3.org/2000/svg" xmlns:xlink="http://www.w3.org/1999/xlink">
    <g id="典型页面及标注" stroke="none" stroke-width="1" fill="none" fill-rule="evenodd" opacity="0.200000003">
        <g id="列表-无数据" transform="translate(-797.000000, -379.000000)" fill="#14253A" fill-rule="nonzero">
            <g id="编组" transform="translate(791.000000, 357.000000)">
                <g id="暂无数据">
                    <g id="暂无数据-(2)" transform="translate(5.000000, 22.000000)">
                        <path d="M71.819805,3.10909091 L71.8213726,3.16317709 C71.8430329,3.17027036 71.8626728,3.17806133 71.8801768,3.18655 C76.1198282,3.18655 77.6040338,6.7367583 77.8169993,8.61836871 L77.8169993,18.9559299 L67.5340427,18.9559299 L67.5340427,46.9444814 C67.6388872,49.8685621 66.1546816,55.7167234 59.9000491,56.0297872 L58.946619,56.0297872 L58.946619,56.0281735 L22.5852193,56.0281735 L22.3722539,55.923281 C15.6949667,53.835113 14.8463811,47.1510389 15.2706739,43.8106157 L15.3755185,42.7649179 L25.1746367,42.7640909 L25.1749605,12.0300766 C25.3860085,9.22954436 27.3812234,3.73107514 33.4740154,3.10909091 L71.819805,3.10909091 Z M50.1478679,45.1677635 L17.4969824,45.1677635 C17.4969824,47.2559315 18.0261197,52.0583951 23.0095121,53.7302205 L52.6919864,53.7302205 C50.9948153,51.9551163 50.2543507,49.2392069 50.1478679,45.1677635 Z M66.4601034,5.38953574 L33.6850633,5.3902342 C28.3217396,6.00227366 27.6156353,11.3087712 27.5913226,12.0946795 L27.5906367,42.7640909 L52.4806591,42.7649179 L52.4806591,43.9138945 C52.4806591,48.0918442 53.1162792,50.7012473 54.4940021,52.1632876 C55.4474322,53.1040928 56.9316378,53.6253279 58.946619,53.625328 L59.9000491,53.625328 C65.0188267,53.3346259 65.2926394,48.0013765 65.3056393,46.9903104 L65.306096,8.93143258 C65.3787332,7.36443523 65.8334725,6.22245542 66.4601034,5.38953574 Z M59.1097299,9.06266925 C59.3220699,9.06266925 59.5327765,9.27465886 59.5327765,9.48664854 L59.5327765,16.6616823 C59.5327765,16.8501175 59.4488891,16.9535153 59.2065477,16.9741662 L59.1097299,16.978036 C58.8819797,16.9637877 58.7001993,16.7830052 58.6850498,16.5556874 L58.6850498,9.48664854 C58.6850498,9.27465893 58.8973898,9.06266925 59.1097299,9.06266925 Z M71.8801768,5.48450301 L70.7137812,5.48450301 C68.6988001,5.69428803 67.6388872,6.94654332 67.5324045,8.93143258 L67.6388872,16.6579769 L75.4842082,16.6579769 L75.4842082,8.7216475 L75.4624058,8.61171032 C75.3205851,7.898891 74.777818,5.48450301 71.8801768,5.48450301 Z M56.2562069,10.4357098 C56.4669135,10.4357098 56.6776201,10.6476994 56.6776201,10.8580583 L56.6776201,15.1842776 C56.6776201,15.3962672 56.4652801,15.6066262 56.2562069,15.6066262 C56.0284567,15.5923778 55.8466763,15.4115954 55.8315268,15.1842776 L55.8315268,10.8580583 C55.8315268,10.6460687 56.0438668,10.4357098 56.2562069,10.4357098 Z M62.0694229,10.4357098 C62.281763,10.4357098 62.4908361,10.6476994 62.4908361,10.8580583 L62.4908361,15.1842776 C62.4908361,15.3962672 62.2801295,15.6066262 62.0694229,15.6066262 C61.8416727,15.5923778 61.6598923,15.4115954 61.6447429,15.1842776 L61.6447429,10.8580583 C61.6447429,10.6460687 61.8570828,10.4357098 62.0694229,10.4357098 Z M55.5981848,20.5600819 L35.5044005,20.5600819 C34.7117226,20.5600819 34.0691302,21.0929301 34.0691302,21.7502317 C34.0691302,22.4075332 34.7117226,22.9403814 35.5044005,22.9403814 L55.5981848,22.9403814 C56.3904822,22.9387422 57.0326928,22.4072134 57.0361632,21.7502317 C57.0361632,21.0960236 56.3907428,20.5600819 55.5981848,20.5600819 L55.5981848,20.5600819 Z M36.1570423,27.6284827 C35.0039203,27.6284827 34.0691302,28.1613309 34.0691302,28.8186324 C34.0691302,29.475934 35.0039203,30.0087821 36.1570423,30.0087821 L48.6845148,30.0087821 C49.8335231,30.0087821 50.7724269,29.473589 50.7724269,28.8186324 C50.7724269,28.1644243 49.833523,27.6284827 48.6845148,27.6284827 L36.1570423,27.6284827 Z M34.0691302,35.8905594 C34.0691302,36.5477616 34.5367104,37.0807092 35.1133052,37.0807092 L39.2886915,37.0807092 C39.8653734,37.0807092 40.3328665,36.547861 40.3328665,35.8905594 C40.3328665,35.2332579 39.8653734,34.7004097 39.2886915,34.7004097 L35.1133052,34.7004097 C34.5366233,34.7004097 34.0691302,35.2332579 34.0691302,35.8905594 L34.0691302,35.8905594 Z" id="形状结合"></path>
                        <g id="编组-10" transform="translate(0.988881, 0.873539)">
                            <path d="M85.2569234,6.02565835 C86.9506662,6.02565835 88.3225535,7.37993669 88.3225535,9.05223231 C88.3225535,10.7229823 86.9507148,12.0780334 85.2569234,12.0780334 L85.2569234,12.0788063 C83.5632293,12.0788063 82.191342,10.7229823 82.191342,9.05223231 C82.191342,7.38066121 83.5631807,6.02565835 85.2569234,6.02565835 Z M85.2569234,7.53816555 C84.4100764,7.53816555 83.7241327,8.21531167 83.7241327,9.05223231 C83.7241327,9.88760729 84.4100764,10.5647465 85.2569234,10.5647465 C86.1030406,10.5647465 86.7897628,9.88760729 86.7897628,9.05223231 C86.7889511,8.6496029 86.6269498,8.2638072 86.3394414,7.97982126 C86.0519331,7.69583532 85.6625014,7.5369539 85.2569234,7.53816555 Z" id="形状结合"></path>
                            <path d="M4.15505114,19.3318061 C5.84801539,19.3318061 7.22068122,20.6868572 7.22068122,22.35838 C7.22068122,24.0299028 5.84801539,25.384954 4.15505114,25.384954 C2.46130841,25.384954 1.08869124,24.0306756 1.08791242,22.3599257 C1.08713426,20.6883546 2.4590216,19.3325789 4.15198585,19.3318061 L4.15505114,19.3318061 Z M4.15505114,20.8450862 C3.30893393,20.8450862 2.62226043,21.5222805 2.62226043,22.35838 C2.62226043,23.1945278 3.30893393,23.871667 4.15505114,23.871667 C5.00194684,23.871667 5.68784185,23.1945278 5.68784185,22.35838 C5.68682392,21.9558931 5.52473828,21.5703033 5.23726287,21.2864858 C4.94978747,21.0026683 4.56048618,20.8438872 4.15505114,20.8450862 Z" id="形状结合"></path>
                            <path d="M88.665695,36.4355517 C90.8770048,36.4355517 92.6699485,38.2054875 92.6699485,40.3887911 C92.6699485,42.5720947 90.8770048,44.3420305 88.665695,44.3420305 C86.4533682,44.3420305 84.6604881,42.5731041 84.6594704,40.39081 C84.6584862,38.2756735 86.3401367,36.5476441 88.4556514,36.4407901 L88.665695,36.4355517 Z M88.665695,38.4121537 C87.5605167,38.4121537 86.6636,39.2966977 86.6636,40.3887911 C86.6636,41.4809476 87.5605167,42.3654108 88.665695,42.3654108 C89.7718901,42.3654108 90.66779,41.4809476 90.66779,40.3887911 C90.6664604,39.8630721 90.4547479,39.3594239 90.0792543,38.9887082 C89.7037608,38.6179925 89.1952646,38.4105964 88.665695,38.4121537 Z" id="形状结合"></path>
                            <path d="M3.15341073,43.9894514 C3.58772472,43.9894514 3.94066103,44.3246884 3.94066103,44.7513583 L3.94066103,46.3219411 L5.52939899,46.3220155 C5.94452904,46.3451973 6.26919484,46.6862371 6.26919484,47.0991217 C6.26919484,47.5120063 5.94452904,47.853046 5.52939899,47.8762279 L3.94066103,47.8762279 L3.94066103,49.4456201 C3.9310296,49.8701236 3.5810035,50.2088737 3.15341073,50.2075093 C2.94833955,50.2112935 2.75015923,50.1339989 2.60249512,49.9926405 C2.45483101,49.8512821 2.36978761,49.6574474 2.36608549,49.4538052 L2.36608549,47.8751117 L0.777422466,47.8751117 C0.350357019,47.8681108 0.00731683562,47.523298 0.0054585747,47.0991589 C0.0054585747,46.6701823 0.344157545,46.3220899 0.777422466,46.3220899 L2.36608549,46.3220899 L2.36608549,44.7513583 C2.37512083,44.3265682 2.72554499,43.9874652 3.15341073,43.9894514 Z" id="路径"></path>
                            <path d="M72.672956,43.5482652 C72.8060135,43.5472909 72.9340126,43.5988498 73.028747,43.6916087 C73.0997977,43.7611778 73.1477637,43.8496397 73.1676532,43.9452485 L73.1779989,44.0428046 L73.1779989,45.0615805 L74.2103203,45.0615805 C74.4796918,45.0768451 74.6902515,45.2981456 74.6902515,45.5659934 C74.6902515,45.8040804 74.5238834,46.0053892 74.2977244,46.0579059 L74.2103203,46.0704063 L73.1779989,46.0704063 L73.1779989,47.089955 C73.1726468,47.3645975 72.9449882,47.5844661 72.6667767,47.5844661 C72.4161042,47.5844661 72.2077966,47.4131471 72.1646008,47.1800489 L72.1563817,47.089955 L72.1563817,46.0711791 L71.1240117,46.0711791 C70.8787885,46.0711791 70.6741235,45.8860447 70.6316698,45.6552024 L70.623591,45.5667662 C70.623591,45.3173584 70.8005093,45.1137242 71.0340252,45.0712331 L71.1240117,45.0630779 L72.1563817,45.0630779 L72.1563817,44.0435775 C72.1615921,43.7987597 72.3415567,43.5977377 72.5763805,43.5566867 L72.672956,43.5482652 Z" id="路径"></path>
                            <path d="M76.912025,22.7117173 C77.1169689,22.7102163 77.3141215,22.7896484 77.4600375,22.9325534 C77.5767704,23.0468774 77.6530476,23.1943179 77.6795381,23.3529136 L77.6899251,23.4736087 L77.6899251,25.043143 L79.2799739,25.043143 C79.6948776,25.0666597 80.0191954,25.407597 80.0191954,25.8202455 C80.0191954,26.1985066 79.7466783,26.5165104 79.3816774,26.5849981 L79.2799739,26.597348 L77.6899251,26.597348 L77.6899251,28.1680729 C77.6816814,28.5911894 77.3310268,28.9299207 76.9025073,28.9299207 C76.5043393,28.9299207 76.1755668,28.6492316 76.1235365,28.2729317 L76.1163635,28.1680729 L76.1163635,26.5985387 L74.5262397,26.5985387 C74.1367276,26.5985387 73.8136512,26.2952144 73.7625101,25.9241408 L73.7554591,25.8214361 C73.7554591,25.4251889 74.0452577,25.1039372 74.4216061,25.0526095 L74.5262397,25.0454498 L76.1163635,25.0454498 L76.1163635,23.4747993 C76.1246397,23.0858445 76.4191696,22.7686449 76.7974235,22.7194899 L76.912025,22.7117173 Z" id="路径"></path>
                            <path d="M11.0035195,1.8189894e-12 C11.4265781,1.8189894e-12 11.7698906,0.343134079 11.7698906,0.766931714 L11.7699392,2.2710897 L13.2920257,2.2710897 C13.7212149,2.2710897 14.0684198,2.60659214 14.0684198,3.02734678 C14.0684198,3.44501012 13.7212149,3.78360385 13.2920257,3.78360385 L11.7699392,3.78360385 L11.7699392,5.28698902 C11.7699392,5.71078665 11.4296921,6.05392073 11.0035682,6.05392073 C10.7994876,6.05311528 10.6040881,5.9718609 10.4603561,5.82803295 C10.3166242,5.684205 10.2363339,5.48958539 10.2371485,5.28698902 L10.2371485,3.78287933 L8.71433214,3.78287933 C8.32618373,3.78755492 8.00183175,3.50521956 7.94627237,3.13435369 L7.93793811,3.02657395 C7.93793811,2.60886231 8.28514296,2.27031688 8.71433214,2.27031688 L10.2371485,2.27031688 L10.2371485,0.766931714 C10.2370998,0.343134079 10.5766171,1.8189894e-12 11.0035195,1.8189894e-12 Z" id="路径"></path>
                        </g>
                    </g>
                </g>
            </g>
        </g>
    </g>
</svg>