<?xml version="1.0" encoding="UTF-8"?>
<svg width="16px" height="16px" viewBox="0 0 16 16" version="1.1" xmlns="http://www.w3.org/2000/svg" xmlns:xlink="http://www.w3.org/1999/xlink">
    <!-- Generator: Sketch 57.1 (83088) - https://sketch.com -->
    <title>添加</title>
    <desc>Created with Sketch.</desc>
    <g id="页面-1" stroke="none" stroke-width="1" fill="none" fill-rule="evenodd">
        <g id="驾驶舱-仪表盘-默认" transform="translate(-197.000000, -63.000000)" fill="#FFFFFF">
            <g id="操作栏" transform="translate(-1.000000, 50.000000)">
                <g id="添加" transform="translate(198.000000, 13.000000)">
                    <path d="M8,0 C12.418278,0 16,3.581722 16,8 C16,12.418278 12.418278,16 8,16 C3.581722,16 0,12.418278 0,8 C0,3.581722 3.581722,0 8,0 Z M8,2 C4.6862915,2 2,4.6862915 2,8 C2,11.3137085 4.6862915,14 8,14 C11.3137085,14 14,11.3137085 14,8 C14,4.6862915 11.3137085,2 8,2 Z" id="形状结合"></path>
                    <rect id="矩形" x="4" y="7" width="8" height="2" rx="1"></rect>
                    <rect id="矩形" transform="translate(8.000000, 8.000000) rotate(-270.000000) translate(-8.000000, -8.000000) " x="4" y="7" width="8" height="2" rx="1"></rect>
                </g>
            </g>
        </g>
    </g>
</svg>