<?xml version="1.0" encoding="UTF-8"?>
<svg width="13px" height="14px" viewBox="0 0 13 14" version="1.1" xmlns="http://www.w3.org/2000/svg" xmlns:xlink="http://www.w3.org/1999/xlink">
    <!-- Generator: Sketch 61.2 (89653) - https://sketch.com -->
    <title>基础监控</title>
    <desc>Created with Sketch.</desc>
    <g id="控件" stroke="none" stroke-width="1" fill="none" fill-rule="evenodd">
        <g id="navi-line-资源管理" transform="translate(-17.000000, -165.000000)" fill="#008DFF" fill-rule="nonzero">
            <g id="编组-8">
                <g id="编组-7" transform="translate(17.000000, 165.000000)">
                    <g id="基础监控">
                        <path d="M4.16410257,4.60635897 C5.21273413,3.69322962 6.77413767,3.69322962 7.82276923,4.60635897 L9.33333334,2.99528205 C9.06676076,2.5631453 8.98295707,2.04274627 9.10039087,1.54877016 C9.21782467,1.05479404 9.5268574,0.627784691 9.95938462,0.361846154 C10.2580197,0.174491202 10.6033571,0.0749703287 10.9558974,0.0746666611 L11.0564103,0.0746666611 C12.0788121,0.150668415 12.8614067,1.01605423 12.8345575,2.04092544 C12.8077084,3.06579666 11.9808763,3.88901934 10.9558974,3.91138462 C10.7069946,3.91079819 10.4604573,3.86304986 10.2293333,3.77066666 L8.52061538,5.49374358 C8.88753909,6.2442575 8.90017666,7.11940928 8.55507692,7.88020512 L9.95938462,9.29025642 C10.6844502,8.86293483 11.6063331,8.97723815 12.205081,9.56869801 C12.8038289,10.1601579 12.9294132,11.0805719 12.511003,11.8108161 C12.0925928,12.5410604 11.2350292,12.8981573 10.4219879,12.6807001 C9.60894662,12.4632428 9.04415169,11.7257199 9.04615385,10.8841026 C9.04686624,10.5951398 9.11678253,10.3105509 9.25005128,10.0541538 L7.92041026,8.79056411 C7.06634291,9.58882156 5.8047184,9.76888978 4.76143589,9.24143589 L4.09805128,9.968 C4.72923906,10.8789259 4.57529843,12.1186547 3.74049019,12.8475438 C2.90568195,13.5764328 1.65651801,13.5617849 0.839031145,12.8135207 C0.0215442799,12.0652565 -0.103283427,10.8222589 0.549091236,9.92638423 C1.2014659,9.03050959 2.4227728,8.76776528 3.38584615,9.31610257 L4.05210257,8.64984615 C3.18418441,7.75710076 3.00443717,6.40082613 3.60984615,5.31282051 L2.94646154,4.64656411 C2.65584311,4.83751729 2.31489787,4.93750122 1.96717949,4.93374358 C1.48987491,4.95551806 1.02363902,4.78577753 0.672053443,4.46223252 C0.320467864,4.13868751 0.112649778,3.68813297 0.0947692308,3.21066666 L0.0947692308,3.12451281 C0.0861513958,3.02226673 0.0861513958,2.91947685 0.0947692308,2.81723077 C0.252453556,1.8983052 1.08940098,1.25451932 2.01802626,1.33784786 C2.94665153,1.4211764 3.65561325,2.2036817 3.64717949,3.136 C3.64821894,3.40499229 3.58935922,3.67084203 3.4748718,3.91425642 L4.16410257,4.60635897 Z" id="路径"></path>
                    </g>
                </g>
            </g>
        </g>
    </g>
</svg>