<?xml version="1.0" encoding="UTF-8"?>
<svg width="14px" height="14px" viewBox="0 0 14 14" version="1.1" xmlns="http://www.w3.org/2000/svg" xmlns:xlink="http://www.w3.org/1999/xlink">
    <!-- Generator: Sketch 61.2 (89653) - https://sketch.com -->
    <title>路径</title>
    <desc>Created with Sketch.</desc>
    <g id="控件" stroke="none" stroke-width="1" fill="none" fill-rule="evenodd">
        <g id="navi-line-资源管理" transform="translate(-16.000000, -213.000000)" fill="#008DFF" fill-rule="nonzero">
            <g id="编组-8">
                <g id="指标管理" transform="translate(16.000000, 213.000000)">
                    <path d="M7.00124469,-0.001875 C3.1353125,-0.001875 0.00124469346,3.1321875 0.00124469346,6.998125 C0.000103124666,7.92813052 0.184868679,8.84898335 0.5446875,9.7065625 L4.3290625,5.921875 L5.3896875,6.9825 L6.47921875,8.07203125 L8.99578125,5.55578125 L7,3.56 L12,3.56 L12,8.56 L10.0565625,6.6165625 L6.47921875,10.19375 L4.3290625,8.04359375 L1.30515625,11.0675 C2.575,12.8417188 4.653125,13.998125 7.00124469,13.998125 C10.8671875,13.998125 14.0012447,10.8640625 14.0012447,6.998125 C14.0012447,3.1321875 10.8673438,-0.001875 7.00124469,-0.001875 Z" id="路径"></path>
                </g>
            </g>
        </g>
    </g>
</svg>