<?xml version="1.0" encoding="UTF-8"?>
<svg width="14px" height="14px" viewBox="0 0 14 14" version="1.1" xmlns="http://www.w3.org/2000/svg" xmlns:xlink="http://www.w3.org/1999/xlink">
    <!-- Generator: Sketch 61.2 (89653) - https://sketch.com -->
    <title>业务监控</title>
    <desc>Created with Sketch.</desc>
    <g id="控件" stroke="none" stroke-width="1" fill="none" fill-rule="evenodd">
        <g id="navi-line-资源管理" transform="translate(-16.000000, -17.000000)" fill="#008DFF" fill-rule="nonzero">
            <g id="编组-8">
                <g id="编组-7" transform="translate(16.000000, 17.000000)">
                    <g id="业务监控">
                        <path d="M10.5,12.6875 L10.5,14 L3.5,14 L3.5,12.6875 L10.5,12.6875 Z M7.014,3.9235 L9.254,7.65625 L14,7.65625 L14,10.5 C14,10.9832492 13.6082492,11.375 13.125,11.375 L0.875,11.375 C0.391750844,11.375 0,10.9832492 0,10.5 L0,6.78125 L1.39825,6.78125 L3.542875,9.99775 L7.014,3.9235 Z M13.125,0 C13.6082492,0 14,0.391750844 14,0.875 L14,6.34375 L9.996875,6.34375 L6.986875,1.3265 L3.45625,7.501375 L2.100875,5.46875 L0,5.46875 L0,0.875 C0,0.391750844 0.391750844,0 0.875,0 L13.125,0 Z" id="形状"></path>
                    </g>
                </g>
            </g>
        </g>
    </g>
</svg>