<?xml version="1.0" encoding="UTF-8"?>
<svg width="15px" height="13px" viewBox="0 0 15 13" version="1.1" xmlns="http://www.w3.org/2000/svg" xmlns:xlink="http://www.w3.org/1999/xlink">
    <!-- Generator: Sketch 61.2 (89653) - https://sketch.com -->
    <title>云监控</title>
    <desc>Created with Sketch.</desc>
    <g id="控件" stroke="none" stroke-width="1" fill="none" fill-rule="evenodd">
        <g id="navi-line-资源管理" transform="translate(-15.000000, -117.000000)" fill="#008DFF" fill-rule="nonzero">
            <g id="编组-8">
                <g id="编组-7" transform="translate(15.000000, 117.000000)">
                    <g id="云监控">
                        <path d="M4.58725,5.5515 C4.906,3.72325 6.50425,2.32925 8.42225,2.32925 C8.604,2.32925 8.78175,2.34549999 8.95675,2.36975 C8.47700001,1.445 7.513,0.811999995 6.39925,0.811999995 C4.80800001,0.811999995 3.51800001,2.102 3.518,3.69325 C3.518,3.83600001 3.54,3.97275 3.56,4.11 C3.34125,4.057 3.11625,4.021 2.88125,4.021 C1.29,4.0215 0,5.3115 0,6.90275 C0,7.78749999 0.399499995,8.57825 1.02725,9.10675 C1.18425,7.21625001 2.696,5.7045 4.58725,5.5515 Z" id="路径"></path>
                        <path d="M12.11875,6.55025 C11.816,6.55025 11.53,6.60975 11.25575,6.6965 C11.2815,6.5415 11.3035,6.38475 11.3035,6.2225 C11.3035,4.63125 10.0135,3.34125 8.42225,3.34125 C6.83099999,3.34125 5.541,4.63125 5.541,6.2225 C5.541,6.36525 5.563,6.50199999 5.583,6.63925 C5.36425,6.58625001 5.13925,6.55025001 4.90425,6.55025 C3.313,6.55025 2.023,7.84025 2.023,9.4315 C2.023,11.02275 3.313,12.31275 4.90425,12.31275 L12.11875,12.31275 C13.71,12.31275 15,11.02275 15,9.4315 C15,7.84 13.71,6.55025001 12.11875,6.55025 Z" id="路径"></path>
                    </g>
                </g>
            </g>
        </g>
    </g>
</svg>