<?xml version="1.0" encoding="UTF-8"?>
<svg width="14px" height="10px" viewBox="0 0 14 10" version="1.1" xmlns="http://www.w3.org/2000/svg" xmlns:xlink="http://www.w3.org/1999/xlink">
    <!-- Generator: Sketch 61.2 (89653) - https://sketch.com -->
    <title>监控策略</title>
    <desc>Created with Sketch.</desc>
    <g id="控件" stroke="none" stroke-width="1" fill="none" fill-rule="evenodd">
        <g id="navi-line-资源管理" transform="translate(-16.000000, -352.000000)" fill="#008DFF" fill-rule="nonzero">
            <g id="编组-8">
                <g id="编组-7备份" transform="translate(16.000000, 350.000000)">
                    <path d="M8.5,4.5 L12,4.5 L12,5.5 L8.5,5.5 L8.5,4.5 Z M8.5,6.5 L12,6.5 L12,7.5 L8.5,7.5 L8.5,6.5 Z M8.5,8.5 L12,8.5 L12,9.5 L8.5,9.5 L8.5,8.5 Z M13,2 L1,2 C0.448391969,2.00163034 0.00163033697,2.44839197 0,3 L0,11 C0.00163033697,11.551608 0.448391969,11.9983697 1,12 L13,12 C13.551608,11.9983697 13.9983697,11.551608 14,11 L14,3 C13.9983697,2.44839197 13.551608,2.00163034 13,2 Z M6.49999999,6.981875 C6.49999999,7.07554717 6.43389209,7.15619923 6.34203125,7.17453125 L5.74296875,7.294375 C5.67539675,7.30806652 5.61988286,7.35605612 5.5965625,7.4209375 C5.57677083,7.47552083 5.55463542,7.52895833 5.53015625,7.58125 C5.50066281,7.64367401 5.50593649,7.71697234 5.5440625,7.77453125 L5.88296875,8.2828125 C5.93524296,8.36083875 5.92496237,8.46495423 5.8584375,8.53125 L5.5303125,8.859375 C5.46411098,8.92556625 5.36039418,8.93583329 5.2825,8.88390625 L4.77421875,8.545 C4.71665984,8.50687399 4.64336151,8.50160031 4.5809375,8.53109375 C4.52885417,8.55557292 4.47541667,8.57770833 4.420625,8.5975 C4.35574362,8.62082036 4.30775402,8.67633425 4.2940625,8.74390625 L4.17421875,9.34296875 C4.15552094,9.43434179 4.0751415,9.49999999 3.981875,9.49999999 L3.518125,9.49999999 C3.42445283,9.49999999 3.34380077,9.43389209 3.32546875,9.34203125 L3.205625,8.74296875 C3.19193348,8.67539675 3.14394388,8.61988286 3.0790625,8.5965625 C3.02447917,8.57666667 2.97104167,8.55453125 2.91875,8.53015625 C2.85632599,8.50066281 2.78302766,8.50593649 2.72546875,8.5440625 L2.2171875,8.88296875 C2.13916125,8.93524296 2.03504577,8.92496237 1.96875,8.8584375 L1.640625,8.5303125 C1.57443375,8.46411098 1.56416671,8.36039418 1.61609375,8.2825 L1.955,7.77421875 C1.99312601,7.71665984 1.99839969,7.64336151 1.96890625,7.5809375 C1.94453125,7.52885417 1.92239583,7.47541667 1.9025,7.420625 C1.87917964,7.35574362 1.82366575,7.30775402 1.75609375,7.2940625 L1.15703125,7.17421875 C1.06565821,7.15552094 0.999999994,7.0751415 0.999999994,6.981875 L0.999999994,6.518125 C0.999999994,6.42445283 1.06610791,6.34380077 1.15796875,6.32546875 L1.75703125,6.205625 C1.82460325,6.19193348 1.88011714,6.14394388 1.9034375,6.0790625 C1.92322917,6.02447917 1.94536458,5.97104167 1.96984375,5.91875 C1.99933719,5.85632599 1.99406351,5.78302766 1.9559375,5.72546875 L1.61703125,5.2171875 C1.56475704,5.13916125 1.57503763,5.03504577 1.6415625,4.96875 L1.9696875,4.640625 C2.03588902,4.57443375 2.13960582,4.56416671 2.2175,4.61609375 L2.72578125,4.955 C2.78334016,4.99312601 2.85663849,4.99839969 2.9190625,4.96890625 C2.97114583,4.94442708 3.02458333,4.92229167 3.079375,4.9025 C3.14425638,4.87917964 3.19224598,4.82366575 3.2059375,4.75609375 L3.32578125,4.15703125 C3.34447906,4.06565821 3.4248585,3.99999999 3.518125,3.99999999 L3.98171875,3.99999999 C4.07539092,3.99999999 4.15604298,4.06610791 4.174375,4.15796875 L4.29421875,4.75703125 C4.30791027,4.82460325 4.35589987,4.88011714 4.42078125,4.9034375 C4.47536458,4.92333333 4.52880208,4.94546875 4.58109375,4.96984375 C4.64351776,4.99933719 4.71681609,4.99406351 4.774375,4.9559375 L5.28265625,4.61703125 C5.36071541,4.56467002 5.46493078,4.574954 5.53125,4.6415625 L5.859375,4.9696875 C5.92556625,5.03588902 5.93583329,5.13960582 5.88390625,5.2175 L5.545,5.72578125 C5.50687399,5.78334016 5.50160031,5.85663849 5.53109375,5.9190625 C5.55546875,5.97114583 5.57760417,6.02458333 5.5975,6.079375 C5.62082036,6.14425638 5.67633425,6.19224598 5.74390625,6.2059375 L6.34296875,6.32578125 C6.43434179,6.34447906 6.49999999,6.4248585 6.49999999,6.518125 L6.49999999,6.981875 Z M13,11 L7.5,11 L7.5,3 L13,3 L13,11 Z M3.75,5.57140169 C3.18772575,5.57145001 2.70378224,5.96867292 2.59412775,6.52015114 C2.48447326,7.07162937 2.7796478,7.62377007 3.29913577,7.8389086 C3.81862374,8.05404713 4.41774194,7.87226501 4.73009639,7.40473208 C5.04245083,6.93719915 4.98104732,6.31412856 4.5834375,5.9165625 C4.36287004,5.69482073 4.06275974,5.57053433 3.75,5.57140169 L3.75,5.57140169 Z" id="监控策略"></path>
                </g>
            </g>
        </g>
    </g>
</svg>